<mxfile host="app.diagrams.net" modified="2023-02-07T08:28:37.809Z" agent="5.0 (Windows NT 10.0; Win64; x64) AppleWebKit/537.36 (KHTML, like Gecko) Chrome/109.0.0.0 Safari/537.36" etag="yBGp-hhHjXXQNVIi6C86" version="20.8.16" type="github">
  <diagram name="第 1 页" id="Je5M9p50dfMenlb4uafC">
    <mxGraphModel dx="3273" dy="1154" grid="1" gridSize="10" guides="1" tooltips="1" connect="1" arrows="1" fold="1" page="1" pageScale="1" pageWidth="827" pageHeight="1169" math="0" shadow="0">
      <root>
        <mxCell id="0" />
        <mxCell id="1" parent="0" />
        <mxCell id="uOk9SfMnvMUk-7f9dFpr-245" value="Middleware" style="swimlane;whiteSpace=wrap;html=1;labelBackgroundColor=none;fontFamily=Helvetica;fontSize=12;startSize=23;fillColor=#ffff88;strokeColor=#36393d;" parent="1" vertex="1">
          <mxGeometry x="-2240" y="360" width="1170" height="1080" as="geometry" />
        </mxCell>
        <mxCell id="uOk9SfMnvMUk-7f9dFpr-83" value="middlewareFun" style="swimlane;whiteSpace=wrap;html=1;labelBackgroundColor=none;fontColor=#000000;" parent="uOk9SfMnvMUk-7f9dFpr-245" vertex="1">
          <mxGeometry x="39" y="195" width="490" height="250" as="geometry" />
        </mxCell>
        <mxCell id="uOk9SfMnvMUk-7f9dFpr-85" value="&lt;div style=&quot;font-size: 12px;&quot;&gt;&lt;span style=&quot;color: rgb(198, 202, 210); font-family: SFMono-Regular, Menlo, Monaco, Consolas, &amp;quot;Liberation Mono&amp;quot;, &amp;quot;Courier New&amp;quot;, monospace; font-size: 12px;&quot;&gt;&amp;nbsp;&amp;nbsp;&lt;/span&gt;&lt;/div&gt;&lt;div style=&quot;font-size: 12px;&quot;&gt;&lt;span style=&quot;color: rgb(198, 202, 210); font-family: SFMono-Regular, Menlo, Monaco, Consolas, &amp;quot;Liberation Mono&amp;quot;, &amp;quot;Courier New&amp;quot;, monospace; font-size: 12px;&quot;&gt;&amp;nbsp; // Outer function:&lt;/span&gt;&lt;br style=&quot;font-size: 12px;&quot;&gt;&lt;/div&gt;&lt;div style=&quot;font-size: 12px;&quot;&gt;&lt;span style=&quot;box-sizing: border-box; font-family: SFMono-Regular, Menlo, Monaco, Consolas, &amp;quot;Liberation Mono&amp;quot;, &amp;quot;Courier New&amp;quot;, monospace; font-size: 12px;&quot; class=&quot;token-line&quot;&gt;&lt;font color=&quot;#f8f8f2&quot;&gt;&lt;span style=&quot;box-sizing: border-box; font-size: 12px;&quot; class=&quot;token plain&quot;&gt;&lt;/span&gt;&lt;/font&gt;&lt;span style=&quot;color: rgb(249, 38, 114); box-sizing: border-box; font-size: 12px;&quot; class=&quot;token keyword&quot;&gt;&amp;nbsp; function&lt;/span&gt;&lt;span style=&quot;box-sizing: border-box; font-size: 12px;&quot; class=&quot;token plain&quot;&gt;&lt;font color=&quot;#f8f8f2&quot;&gt;&amp;nbsp;&lt;/font&gt;&lt;font color=&quot;#e6d874&quot;&gt;middlewareFun&lt;/font&gt;&lt;/span&gt;&lt;span style=&quot;color: rgb(248, 248, 242); box-sizing: border-box; font-size: 12px;&quot; class=&quot;token punctuation&quot;&gt;(&lt;/span&gt;&lt;span style=&quot;color: rgb(248, 248, 242); box-sizing: border-box; font-size: 12px;&quot; class=&quot;token parameter&quot;&gt;storeAPI&lt;/span&gt;&lt;span style=&quot;color: rgb(248, 248, 242); box-sizing: border-box; font-size: 12px;&quot; class=&quot;token punctuation&quot;&gt;)&lt;/span&gt;&lt;span style=&quot;color: rgb(248, 248, 242); box-sizing: border-box; font-size: 12px;&quot; class=&quot;token plain&quot;&gt; &lt;/span&gt;&lt;span style=&quot;color: rgb(248, 248, 242); box-sizing: border-box; font-size: 12px;&quot; class=&quot;token punctuation&quot;&gt;{&lt;/span&gt;&lt;font color=&quot;#f8f8f2&quot;&gt;&lt;span style=&quot;box-sizing: border-box; font-size: 12px;&quot; class=&quot;token plain&quot;&gt;&lt;/span&gt;&lt;/font&gt;&lt;br style=&quot;box-sizing: border-box; font-size: 12px;&quot;&gt;&lt;/span&gt;&lt;span style=&quot;box-sizing: border-box; color: rgb(248, 248, 242); font-family: SFMono-Regular, Menlo, Monaco, Consolas, &amp;quot;Liberation Mono&amp;quot;, &amp;quot;Courier New&amp;quot;, monospace; font-size: 12px;&quot; class=&quot;token-line&quot;&gt;&lt;span style=&quot;box-sizing: border-box; color: rgb(249, 38, 114); font-size: 12px;&quot; class=&quot;token keyword control-flow&quot;&gt;&amp;nbsp; &amp;nbsp; return&lt;/span&gt;&lt;span style=&quot;box-sizing: border-box; font-size: 12px;&quot; class=&quot;token plain&quot;&gt; &lt;/span&gt;&lt;span style=&quot;box-sizing: border-box; color: rgb(249, 38, 114); font-size: 12px;&quot; class=&quot;token keyword&quot;&gt;function&lt;/span&gt;&lt;span style=&quot;box-sizing: border-box; font-size: 12px;&quot; class=&quot;token plain&quot;&gt; &lt;/span&gt;&lt;span style=&quot;box-sizing: border-box; color: rgb(230, 216, 116); font-size: 12px;&quot; class=&quot;token function&quot;&gt;wrapDispatch&lt;/span&gt;&lt;span style=&quot;box-sizing: border-box; font-size: 12px;&quot; class=&quot;token punctuation&quot;&gt;(&lt;/span&gt;&lt;span style=&quot;box-sizing: border-box; font-size: 12px;&quot; class=&quot;token parameter&quot;&gt;next&lt;/span&gt;&lt;span style=&quot;box-sizing: border-box; font-size: 12px;&quot; class=&quot;token punctuation&quot;&gt;)&lt;/span&gt;&lt;span style=&quot;box-sizing: border-box; font-size: 12px;&quot; class=&quot;token plain&quot;&gt; &lt;/span&gt;&lt;span style=&quot;box-sizing: border-box; font-size: 12px;&quot; class=&quot;token punctuation&quot;&gt;{&lt;/span&gt;&lt;span style=&quot;box-sizing: border-box; font-size: 12px;&quot; class=&quot;token plain&quot;&gt;&lt;/span&gt;&lt;br style=&quot;box-sizing: border-box; font-size: 12px;&quot;&gt;&lt;/span&gt;&lt;span style=&quot;box-sizing: border-box; color: rgb(248, 248, 242); font-family: SFMono-Regular, Menlo, Monaco, Consolas, &amp;quot;Liberation Mono&amp;quot;, &amp;quot;Courier New&amp;quot;, monospace; font-size: 12px;&quot; class=&quot;token-line&quot;&gt;&lt;span style=&quot;box-sizing: border-box; color: rgb(249, 38, 114); font-size: 12px;&quot; class=&quot;token keyword control-flow&quot;&gt;&amp;nbsp; &amp;nbsp; &amp;nbsp; return&lt;/span&gt;&lt;span style=&quot;box-sizing: border-box; font-size: 12px;&quot; class=&quot;token plain&quot;&gt; &lt;/span&gt;&lt;span style=&quot;box-sizing: border-box; color: rgb(249, 38, 114); font-size: 12px;&quot; class=&quot;token keyword&quot;&gt;function&lt;/span&gt;&lt;span style=&quot;box-sizing: border-box; font-size: 12px;&quot; class=&quot;token plain&quot;&gt; &lt;/span&gt;&lt;span style=&quot;box-sizing: border-box; color: rgb(230, 216, 116); font-size: 12px;&quot; class=&quot;token function&quot;&gt;handleAction&lt;/span&gt;&lt;span style=&quot;box-sizing: border-box; font-size: 12px;&quot; class=&quot;token punctuation&quot;&gt;(&lt;/span&gt;&lt;span style=&quot;box-sizing: border-box; font-size: 12px;&quot; class=&quot;token parameter&quot;&gt;action&lt;/span&gt;&lt;span style=&quot;box-sizing: border-box; font-size: 12px;&quot; class=&quot;token punctuation&quot;&gt;)&lt;/span&gt;&lt;span style=&quot;box-sizing: border-box; font-size: 12px;&quot; class=&quot;token plain&quot;&gt; &lt;/span&gt;&lt;span style=&quot;box-sizing: border-box; font-size: 12px;&quot; class=&quot;token punctuation&quot;&gt;{&lt;/span&gt;&lt;span style=&quot;box-sizing: border-box; font-size: 12px;&quot; class=&quot;token plain&quot;&gt;&lt;/span&gt;&lt;br style=&quot;box-sizing: border-box; font-size: 12px;&quot;&gt;&lt;/span&gt;&lt;span style=&quot;box-sizing: border-box; color: rgb(248, 248, 242); font-family: SFMono-Regular, Menlo, Monaco, Consolas, &amp;quot;Liberation Mono&amp;quot;, &amp;quot;Courier New&amp;quot;, monospace; font-size: 12px;&quot; class=&quot;token-line&quot;&gt;&lt;span style=&quot;box-sizing: border-box; color: rgb(198, 202, 210); font-size: 12px;&quot; class=&quot;token comment&quot;&gt;&amp;nbsp; &amp;nbsp; &amp;nbsp; &amp;nbsp; // Do anything here: pass the action onwards with next(action),&lt;/span&gt;&lt;span style=&quot;box-sizing: border-box; font-size: 12px;&quot; class=&quot;token plain&quot;&gt;&lt;/span&gt;&lt;br style=&quot;box-sizing: border-box; font-size: 12px;&quot;&gt;&lt;/span&gt;&lt;span style=&quot;box-sizing: border-box; color: rgb(248, 248, 242); font-family: SFMono-Regular, Menlo, Monaco, Consolas, &amp;quot;Liberation Mono&amp;quot;, &amp;quot;Courier New&amp;quot;, monospace; font-size: 12px;&quot; class=&quot;token-line&quot;&gt;&lt;span style=&quot;box-sizing: border-box; font-size: 12px;&quot; class=&quot;token plain&quot;&gt;      &lt;/span&gt;&lt;span style=&quot;box-sizing: border-box; color: rgb(198, 202, 210); font-size: 12px;&quot; class=&quot;token comment&quot;&gt;&lt;span style=&quot;white-space: pre; font-size: 12px;&quot;&gt; &lt;/span&gt;// or restart the pipeline with storeAPI.dispatch(action)&lt;/span&gt;&lt;span style=&quot;box-sizing: border-box; font-size: 12px;&quot; class=&quot;token plain&quot;&gt;&lt;/span&gt;&lt;br style=&quot;box-sizing: border-box; font-size: 12px;&quot;&gt;&lt;/span&gt;&lt;span style=&quot;box-sizing: border-box; color: rgb(248, 248, 242); font-family: SFMono-Regular, Menlo, Monaco, Consolas, &amp;quot;Liberation Mono&amp;quot;, &amp;quot;Courier New&amp;quot;, monospace; font-size: 12px;&quot; class=&quot;token-line&quot;&gt;&lt;span style=&quot;box-sizing: border-box; font-size: 12px;&quot; class=&quot;token plain&quot;&gt;      &lt;/span&gt;&lt;span style=&quot;box-sizing: border-box; color: rgb(198, 202, 210); font-size: 12px;&quot; class=&quot;token comment&quot;&gt;&lt;span style=&quot;white-space: pre; font-size: 12px;&quot;&gt; &lt;/span&gt;// Can also use storeAPI.getState() here&lt;/span&gt;&lt;span style=&quot;box-sizing: border-box; font-size: 12px;&quot; class=&quot;token plain&quot;&gt;&lt;/span&gt;&lt;br style=&quot;box-sizing: border-box; font-size: 12px;&quot;&gt;&lt;/span&gt;&lt;span style=&quot;box-sizing: border-box; color: rgb(248, 248, 242); font-family: SFMono-Regular, Menlo, Monaco, Consolas, &amp;quot;Liberation Mono&amp;quot;, &amp;quot;Courier New&amp;quot;, monospace; font-size: 12px;&quot; class=&quot;token-line&quot;&gt;&lt;span style=&quot;box-sizing: border-box; display: inline-block; font-size: 12px;&quot; class=&quot;token plain&quot;&gt;&lt;/span&gt;&lt;br style=&quot;box-sizing: border-box; font-size: 12px;&quot;&gt;&lt;/span&gt;&lt;span style=&quot;box-sizing: border-box; color: rgb(248, 248, 242); font-family: SFMono-Regular, Menlo, Monaco, Consolas, &amp;quot;Liberation Mono&amp;quot;, &amp;quot;Courier New&amp;quot;, monospace; font-size: 12px;&quot; class=&quot;token-line&quot;&gt;&lt;span style=&quot;box-sizing: border-box; font-size: 12px;&quot; class=&quot;token plain&quot;&gt;      &lt;/span&gt;&lt;span style=&quot;box-sizing: border-box; color: rgb(249, 38, 114); font-size: 12px;&quot; class=&quot;token keyword control-flow&quot;&gt;&lt;span style=&quot;white-space: pre; font-size: 12px;&quot;&gt; &lt;/span&gt;return&lt;/span&gt;&lt;span style=&quot;box-sizing: border-box; font-size: 12px;&quot; class=&quot;token plain&quot;&gt; &lt;/span&gt;&lt;span style=&quot;box-sizing: border-box; color: rgb(230, 216, 116); font-size: 12px;&quot; class=&quot;token function&quot;&gt;next&lt;/span&gt;&lt;span style=&quot;box-sizing: border-box; font-size: 12px;&quot; class=&quot;token punctuation&quot;&gt;(&lt;/span&gt;&lt;span style=&quot;box-sizing: border-box; font-size: 12px;&quot; class=&quot;token plain&quot;&gt;action&lt;/span&gt;&lt;span style=&quot;box-sizing: border-box; font-size: 12px;&quot; class=&quot;token punctuation&quot;&gt;)&lt;/span&gt;&lt;/span&gt;&lt;/div&gt;&lt;div style=&quot;font-size: 12px;&quot;&gt;&lt;span style=&quot;box-sizing: border-box; color: rgb(248, 248, 242); font-family: SFMono-Regular, Menlo, Monaco, Consolas, &amp;quot;Liberation Mono&amp;quot;, &amp;quot;Courier New&amp;quot;, monospace; font-size: 12px;&quot; class=&quot;token-line&quot;&gt;&lt;span style=&quot;box-sizing: border-box; font-size: 12px;&quot; class=&quot;token punctuation&quot;&gt;&amp;nbsp; &amp;nbsp; &amp;nbsp; }&lt;/span&gt;&lt;span style=&quot;box-sizing: border-box; font-size: 12px;&quot; class=&quot;token plain&quot;&gt;&lt;/span&gt;&lt;br style=&quot;box-sizing: border-box; font-size: 12px;&quot;&gt;&lt;/span&gt;&lt;span style=&quot;box-sizing: border-box; color: rgb(248, 248, 242); font-family: SFMono-Regular, Menlo, Monaco, Consolas, &amp;quot;Liberation Mono&amp;quot;, &amp;quot;Courier New&amp;quot;, monospace; font-size: 12px;&quot; class=&quot;token-line&quot;&gt;&lt;span style=&quot;box-sizing: border-box; font-size: 12px;&quot; class=&quot;token punctuation&quot;&gt;&amp;nbsp; &amp;nbsp; }&lt;/span&gt;&lt;span style=&quot;box-sizing: border-box; font-size: 12px;&quot; class=&quot;token plain&quot;&gt;&lt;/span&gt;&lt;br style=&quot;box-sizing: border-box; font-size: 12px;&quot;&gt;&lt;/span&gt;&lt;span style=&quot;box-sizing: border-box; color: rgb(248, 248, 242); font-family: SFMono-Regular, Menlo, Monaco, Consolas, &amp;quot;Liberation Mono&amp;quot;, &amp;quot;Courier New&amp;quot;, monospace; font-size: 12px;&quot; class=&quot;token-line&quot;&gt;&lt;span style=&quot;box-sizing: border-box; font-size: 12px;&quot; class=&quot;token plain&quot;&gt;&lt;/span&gt;&lt;span style=&quot;box-sizing: border-box; font-size: 12px;&quot; class=&quot;token punctuation&quot;&gt;&amp;nbsp; }&lt;/span&gt;&lt;/span&gt;&lt;br style=&quot;font-size: 12px;&quot;&gt;&lt;/div&gt;&lt;div style=&quot;font-size: 12px;&quot;&gt;&lt;span style=&quot;box-sizing: border-box; color: rgb(248, 248, 242); font-family: SFMono-Regular, Menlo, Monaco, Consolas, &amp;quot;Liberation Mono&amp;quot;, &amp;quot;Courier New&amp;quot;, monospace; font-size: 12px;&quot; class=&quot;token-line&quot;&gt;&lt;span style=&quot;box-sizing: border-box; font-size: 12px;&quot; class=&quot;token punctuation&quot;&gt;&lt;br&gt;&lt;/span&gt;&lt;/span&gt;&lt;/div&gt;" style="text;html=1;strokeColor=none;fillColor=none;align=left;verticalAlign=top;whiteSpace=wrap;rounded=0;fontColor=#000000;labelBackgroundColor=#272822;fontSize=12;spacingTop=0;spacingLeft=0;labelBorderColor=none;" parent="uOk9SfMnvMUk-7f9dFpr-83" vertex="1">
          <mxGeometry x="10" y="30" width="480" height="220" as="geometry" />
        </mxCell>
        <mxCell id="uOk9SfMnvMUk-7f9dFpr-36" value="Middleware" style="swimlane;whiteSpace=wrap;html=1;fillColor=#cdeb8b;strokeColor=#cdeb8b;strokeWidth=3;" parent="uOk9SfMnvMUk-7f9dFpr-245" vertex="1">
          <mxGeometry x="570" y="40" width="560" height="560" as="geometry">
            <mxRectangle x="-1840" y="-30" width="110" height="30" as="alternateBounds" />
          </mxGeometry>
        </mxCell>
        <mxCell id="uOk9SfMnvMUk-7f9dFpr-37" value="props" style="swimlane;fontStyle=0;childLayout=stackLayout;horizontal=1;startSize=30;horizontalStack=0;resizeParent=1;resizeParentMax=0;resizeLast=0;collapsible=1;marginBottom=0;whiteSpace=wrap;html=1;fillColor=#ffcccc;strokeColor=#ffcccc;strokeWidth=2;" parent="uOk9SfMnvMUk-7f9dFpr-36" vertex="1">
          <mxGeometry x="20" y="40" width="520" height="60" as="geometry" />
        </mxCell>
        <mxCell id="uOk9SfMnvMUk-7f9dFpr-38" value="api: MiddlewareAPI" style="text;strokeColor=none;fillColor=none;align=center;verticalAlign=middle;spacingLeft=4;spacingRight=4;overflow=hidden;points=[[0,0.5],[1,0.5]];portConstraint=eastwest;rotatable=0;whiteSpace=wrap;html=1;" parent="uOk9SfMnvMUk-7f9dFpr-37" vertex="1">
          <mxGeometry y="30" width="520" height="30" as="geometry" />
        </mxCell>
        <mxCell id="uOk9SfMnvMUk-7f9dFpr-199" value="return" style="swimlane;whiteSpace=wrap;html=1;labelBackgroundColor=none;strokeColor=#ffcccc;fontFamily=Helvetica;fontSize=12;fontColor=default;startSize=23;fillColor=#ffcccc;strokeWidth=2;" parent="uOk9SfMnvMUk-7f9dFpr-36" vertex="1">
          <mxGeometry x="20" y="110" width="520" height="430" as="geometry" />
        </mxCell>
        <mxCell id="uOk9SfMnvMUk-7f9dFpr-178" value="wrapDispatch" style="swimlane;whiteSpace=wrap;html=1;labelBackgroundColor=none;strokeColor=#82b366;fillColor=#d5e8d4;swimlaneFillColor=default;strokeWidth=2;" parent="uOk9SfMnvMUk-7f9dFpr-199" vertex="1">
          <mxGeometry x="20" y="41" width="480" height="370" as="geometry" />
        </mxCell>
        <mxCell id="uOk9SfMnvMUk-7f9dFpr-182" value="Props" style="swimlane;fontStyle=0;childLayout=stackLayout;horizontal=1;startSize=30;horizontalStack=0;resizeParent=1;resizeParentMax=0;resizeLast=0;collapsible=1;marginBottom=0;whiteSpace=wrap;html=1;labelBackgroundColor=none;strokeColor=#b46504;fontFamily=Helvetica;fontSize=12;fillColor=#fad7ac;" parent="uOk9SfMnvMUk-7f9dFpr-178" vertex="1">
          <mxGeometry x="20" y="40" width="440" height="60" as="geometry" />
        </mxCell>
        <mxCell id="uOk9SfMnvMUk-7f9dFpr-183" value="next: D" style="text;strokeColor=none;fillColor=none;align=center;verticalAlign=middle;spacingLeft=4;spacingRight=4;overflow=hidden;points=[[0,0.5],[1,0.5]];portConstraint=eastwest;rotatable=0;whiteSpace=wrap;html=1;fontSize=12;fontFamily=Helvetica;fontColor=default;" parent="uOk9SfMnvMUk-7f9dFpr-182" vertex="1">
          <mxGeometry y="30" width="440" height="30" as="geometry" />
        </mxCell>
        <mxCell id="uOk9SfMnvMUk-7f9dFpr-189" value="return" style="swimlane;whiteSpace=wrap;html=1;labelBackgroundColor=none;strokeColor=#b46504;fillColor=#fad7ac;" parent="uOk9SfMnvMUk-7f9dFpr-178" vertex="1">
          <mxGeometry x="20" y="120" width="440" height="220" as="geometry" />
        </mxCell>
        <mxCell id="uOk9SfMnvMUk-7f9dFpr-193" value="handleAction" style="swimlane;whiteSpace=wrap;html=1;labelBackgroundColor=none;strokeColor=#56517e;fillColor=#d0cee2;startSize=23;" parent="uOk9SfMnvMUk-7f9dFpr-189" vertex="1">
          <mxGeometry x="20" y="40" width="400" height="160" as="geometry" />
        </mxCell>
        <mxCell id="uOk9SfMnvMUk-7f9dFpr-195" value="Props" style="swimlane;fontStyle=0;childLayout=stackLayout;horizontal=1;startSize=30;horizontalStack=0;resizeParent=1;resizeParentMax=0;resizeLast=0;collapsible=1;marginBottom=0;whiteSpace=wrap;html=1;labelBackgroundColor=none;strokeColor=#ae4132;fontFamily=Helvetica;fontSize=12;fillColor=#fad9d5;" parent="uOk9SfMnvMUk-7f9dFpr-193" vertex="1">
          <mxGeometry x="10" y="30" width="380" height="60" as="geometry" />
        </mxCell>
        <mxCell id="uOk9SfMnvMUk-7f9dFpr-196" value="action: D extends Dispatch&amp;lt;infer A&amp;gt; ? A : never" style="text;strokeColor=none;fillColor=none;align=left;verticalAlign=middle;spacingLeft=4;spacingRight=4;overflow=hidden;points=[[0,0.5],[1,0.5]];portConstraint=eastwest;rotatable=0;whiteSpace=wrap;html=1;fontSize=12;fontFamily=Helvetica;fontColor=default;" parent="uOk9SfMnvMUk-7f9dFpr-195" vertex="1">
          <mxGeometry y="30" width="380" height="30" as="geometry" />
        </mxCell>
        <mxCell id="uOk9SfMnvMUk-7f9dFpr-197" value="return" style="swimlane;whiteSpace=wrap;html=1;labelBackgroundColor=none;strokeColor=#ae4132;fillColor=#fad9d5;" parent="uOk9SfMnvMUk-7f9dFpr-193" vertex="1">
          <mxGeometry x="10" y="100" width="380" height="50" as="geometry" />
        </mxCell>
        <mxCell id="uOk9SfMnvMUk-7f9dFpr-198" value="any" style="text;html=1;strokeColor=none;fillColor=none;align=center;verticalAlign=middle;whiteSpace=wrap;rounded=0;fontColor=#1A1A1A;" parent="uOk9SfMnvMUk-7f9dFpr-197" vertex="1">
          <mxGeometry y="19" width="380" height="31" as="geometry" />
        </mxCell>
        <mxCell id="uOk9SfMnvMUk-7f9dFpr-201" value="middlewareFun" style="rounded=1;whiteSpace=wrap;html=1;absoluteArcSize=1;arcSize=14;strokeWidth=2;labelBackgroundColor=none;strokeColor=#36393d;fontFamily=Helvetica;fontSize=12;fontColor=default;startSize=23;fillColor=#ffcccc;" parent="uOk9SfMnvMUk-7f9dFpr-245" vertex="1">
          <mxGeometry x="210" y="785" width="100" height="100" as="geometry" />
        </mxCell>
        <mxCell id="uOk9SfMnvMUk-7f9dFpr-202" value="storeAPI" style="swimlane;fontStyle=0;childLayout=stackLayout;horizontal=1;startSize=30;horizontalStack=0;resizeParent=1;resizeParentMax=0;resizeLast=0;collapsible=1;marginBottom=0;whiteSpace=wrap;html=1;labelBackgroundColor=none;strokeColor=#36393d;fontFamily=Helvetica;fontSize=12;fontColor=default;fillColor=#ffcccc;" parent="uOk9SfMnvMUk-7f9dFpr-245" vertex="1">
          <mxGeometry x="190" y="955" width="140" height="90" as="geometry" />
        </mxCell>
        <mxCell id="uOk9SfMnvMUk-7f9dFpr-203" value="getState(): S" style="text;strokeColor=none;fillColor=none;align=left;verticalAlign=middle;spacingLeft=4;spacingRight=4;overflow=hidden;points=[[0,0.5],[1,0.5]];portConstraint=eastwest;rotatable=0;whiteSpace=wrap;html=1;fontSize=12;fontFamily=Helvetica;fontColor=default;" parent="uOk9SfMnvMUk-7f9dFpr-202" vertex="1">
          <mxGeometry y="30" width="140" height="30" as="geometry" />
        </mxCell>
        <mxCell id="uOk9SfMnvMUk-7f9dFpr-204" value="dispatch: D" style="text;strokeColor=none;fillColor=none;align=left;verticalAlign=middle;spacingLeft=4;spacingRight=4;overflow=hidden;points=[[0,0.5],[1,0.5]];portConstraint=eastwest;rotatable=0;whiteSpace=wrap;html=1;fontSize=12;fontFamily=Helvetica;fontColor=default;" parent="uOk9SfMnvMUk-7f9dFpr-202" vertex="1">
          <mxGeometry y="60" width="140" height="30" as="geometry" />
        </mxCell>
        <mxCell id="uOk9SfMnvMUk-7f9dFpr-234" style="edgeStyle=orthogonalEdgeStyle;rounded=0;orthogonalLoop=1;jettySize=auto;html=1;strokeColor=#182E3E;fontFamily=Helvetica;fontSize=12;fontColor=default;startSize=23;entryX=0.5;entryY=0;entryDx=0;entryDy=0;" parent="uOk9SfMnvMUk-7f9dFpr-245" source="uOk9SfMnvMUk-7f9dFpr-201" target="uOk9SfMnvMUk-7f9dFpr-202" edge="1">
          <mxGeometry relative="1" as="geometry">
            <mxPoint x="260" y="950" as="targetPoint" />
          </mxGeometry>
        </mxCell>
        <mxCell id="uOk9SfMnvMUk-7f9dFpr-209" value="wrapDispatch" style="rounded=1;whiteSpace=wrap;html=1;absoluteArcSize=1;arcSize=14;strokeWidth=2;labelBackgroundColor=none;strokeColor=#36393d;fontFamily=Helvetica;fontSize=12;fontColor=default;startSize=23;fillColor=#ffcccc;" parent="uOk9SfMnvMUk-7f9dFpr-245" vertex="1">
          <mxGeometry x="410" y="785" width="100" height="100" as="geometry" />
        </mxCell>
        <mxCell id="uOk9SfMnvMUk-7f9dFpr-210" value="" style="edgeStyle=orthogonalEdgeStyle;rounded=0;orthogonalLoop=1;jettySize=auto;html=1;strokeColor=#182E3E;fontFamily=Helvetica;fontSize=12;fontColor=default;startSize=23;" parent="uOk9SfMnvMUk-7f9dFpr-245" source="uOk9SfMnvMUk-7f9dFpr-201" target="uOk9SfMnvMUk-7f9dFpr-209" edge="1">
          <mxGeometry relative="1" as="geometry" />
        </mxCell>
        <mxCell id="uOk9SfMnvMUk-7f9dFpr-216" value="return" style="edgeLabel;html=1;align=center;verticalAlign=middle;resizable=0;points=[];fontSize=12;fontFamily=Helvetica;fontColor=default;" parent="uOk9SfMnvMUk-7f9dFpr-210" vertex="1" connectable="0">
          <mxGeometry x="-0.1871" y="-2" relative="1" as="geometry">
            <mxPoint as="offset" />
          </mxGeometry>
        </mxCell>
        <mxCell id="uOk9SfMnvMUk-7f9dFpr-212" value="handleAction" style="rounded=1;whiteSpace=wrap;html=1;absoluteArcSize=1;arcSize=14;strokeWidth=2;labelBackgroundColor=none;strokeColor=#36393d;fontFamily=Helvetica;fontSize=12;fontColor=default;startSize=23;fillColor=#ffcccc;" parent="uOk9SfMnvMUk-7f9dFpr-245" vertex="1">
          <mxGeometry x="610" y="785" width="100" height="100" as="geometry" />
        </mxCell>
        <mxCell id="uOk9SfMnvMUk-7f9dFpr-213" value="" style="edgeStyle=orthogonalEdgeStyle;rounded=0;orthogonalLoop=1;jettySize=auto;html=1;strokeColor=#182E3E;fontFamily=Helvetica;fontSize=12;fontColor=default;startSize=23;" parent="uOk9SfMnvMUk-7f9dFpr-245" source="uOk9SfMnvMUk-7f9dFpr-209" target="uOk9SfMnvMUk-7f9dFpr-212" edge="1">
          <mxGeometry relative="1" as="geometry" />
        </mxCell>
        <mxCell id="uOk9SfMnvMUk-7f9dFpr-217" value="return" style="edgeLabel;html=1;align=center;verticalAlign=middle;resizable=0;points=[];fontSize=12;fontFamily=Helvetica;fontColor=default;" parent="uOk9SfMnvMUk-7f9dFpr-213" vertex="1" connectable="0">
          <mxGeometry x="0.2339" relative="1" as="geometry">
            <mxPoint x="-12" as="offset" />
          </mxGeometry>
        </mxCell>
        <mxCell id="uOk9SfMnvMUk-7f9dFpr-218" value="props" style="swimlane;fontStyle=0;childLayout=stackLayout;horizontal=1;startSize=30;horizontalStack=0;resizeParent=1;resizeParentMax=0;resizeLast=0;collapsible=1;marginBottom=0;whiteSpace=wrap;html=1;labelBackgroundColor=none;strokeColor=#36393d;fontFamily=Helvetica;fontSize=12;fontColor=default;fillColor=#ffcccc;" parent="uOk9SfMnvMUk-7f9dFpr-245" vertex="1">
          <mxGeometry x="390" y="640" width="140" height="60" as="geometry" />
        </mxCell>
        <mxCell id="uOk9SfMnvMUk-7f9dFpr-219" value="next: D" style="text;strokeColor=none;fillColor=none;align=left;verticalAlign=middle;spacingLeft=4;spacingRight=4;overflow=hidden;points=[[0,0.5],[1,0.5]];portConstraint=eastwest;rotatable=0;whiteSpace=wrap;html=1;fontSize=12;fontFamily=Helvetica;fontColor=default;" parent="uOk9SfMnvMUk-7f9dFpr-218" vertex="1">
          <mxGeometry y="30" width="140" height="30" as="geometry" />
        </mxCell>
        <mxCell id="uOk9SfMnvMUk-7f9dFpr-222" style="edgeStyle=orthogonalEdgeStyle;rounded=0;orthogonalLoop=1;jettySize=auto;html=1;entryX=0.5;entryY=1;entryDx=0;entryDy=0;entryPerimeter=0;strokeColor=#182E3E;fontFamily=Helvetica;fontSize=12;fontColor=default;startSize=23;" parent="uOk9SfMnvMUk-7f9dFpr-245" source="uOk9SfMnvMUk-7f9dFpr-209" target="uOk9SfMnvMUk-7f9dFpr-219" edge="1">
          <mxGeometry relative="1" as="geometry" />
        </mxCell>
        <mxCell id="uOk9SfMnvMUk-7f9dFpr-223" value="props" style="edgeLabel;html=1;align=center;verticalAlign=middle;resizable=0;points=[];fontSize=12;fontFamily=Helvetica;fontColor=default;" parent="uOk9SfMnvMUk-7f9dFpr-222" vertex="1" connectable="0">
          <mxGeometry x="0.252" y="1" relative="1" as="geometry">
            <mxPoint x="1" y="9" as="offset" />
          </mxGeometry>
        </mxCell>
        <mxCell id="uOk9SfMnvMUk-7f9dFpr-224" value="props" style="swimlane;fontStyle=0;childLayout=stackLayout;horizontal=1;startSize=30;horizontalStack=0;resizeParent=1;resizeParentMax=0;resizeLast=0;collapsible=1;marginBottom=0;whiteSpace=wrap;html=1;labelBackgroundColor=none;strokeColor=#36393d;fontFamily=Helvetica;fontSize=12;fontColor=default;fillColor=#ffcccc;" parent="uOk9SfMnvMUk-7f9dFpr-245" vertex="1">
          <mxGeometry x="525" y="970" width="270" height="60" as="geometry" />
        </mxCell>
        <mxCell id="uOk9SfMnvMUk-7f9dFpr-225" value="action: D extends Dispatch&amp;lt;infer A&amp;gt; ? A : never" style="text;strokeColor=none;fillColor=none;align=left;verticalAlign=middle;spacingLeft=4;spacingRight=4;overflow=hidden;points=[[0,0.5],[1,0.5]];portConstraint=eastwest;rotatable=0;whiteSpace=wrap;html=1;fontSize=12;fontFamily=Helvetica;fontColor=default;" parent="uOk9SfMnvMUk-7f9dFpr-224" vertex="1">
          <mxGeometry y="30" width="270" height="30" as="geometry" />
        </mxCell>
        <mxCell id="uOk9SfMnvMUk-7f9dFpr-226" style="edgeStyle=orthogonalEdgeStyle;rounded=0;orthogonalLoop=1;jettySize=auto;html=1;strokeColor=#182E3E;fontFamily=Helvetica;fontSize=12;fontColor=default;startSize=23;" parent="uOk9SfMnvMUk-7f9dFpr-245" source="uOk9SfMnvMUk-7f9dFpr-212" target="uOk9SfMnvMUk-7f9dFpr-224" edge="1">
          <mxGeometry relative="1" as="geometry">
            <Array as="points">
              <mxPoint x="660" y="940" />
              <mxPoint x="660" y="940" />
            </Array>
          </mxGeometry>
        </mxCell>
        <mxCell id="uOk9SfMnvMUk-7f9dFpr-227" value="props" style="edgeLabel;html=1;align=center;verticalAlign=middle;resizable=0;points=[];fontSize=12;fontFamily=Helvetica;fontColor=default;" parent="uOk9SfMnvMUk-7f9dFpr-226" vertex="1" connectable="0">
          <mxGeometry x="0.233" y="2" relative="1" as="geometry">
            <mxPoint x="-2" y="-8" as="offset" />
          </mxGeometry>
        </mxCell>
        <mxCell id="uOk9SfMnvMUk-7f9dFpr-230" value="any" style="rounded=1;whiteSpace=wrap;html=1;absoluteArcSize=1;arcSize=14;strokeWidth=2;labelBackgroundColor=none;strokeColor=#36393d;fontFamily=Helvetica;fontSize=12;fontColor=default;startSize=23;fillColor=#ffcccc;" parent="uOk9SfMnvMUk-7f9dFpr-245" vertex="1">
          <mxGeometry x="790" y="785" width="100" height="100" as="geometry" />
        </mxCell>
        <mxCell id="uOk9SfMnvMUk-7f9dFpr-231" value="" style="edgeStyle=orthogonalEdgeStyle;rounded=0;orthogonalLoop=1;jettySize=auto;html=1;strokeColor=#182E3E;fontFamily=Helvetica;fontSize=12;fontColor=default;startSize=23;" parent="uOk9SfMnvMUk-7f9dFpr-245" source="uOk9SfMnvMUk-7f9dFpr-212" target="uOk9SfMnvMUk-7f9dFpr-230" edge="1">
          <mxGeometry relative="1" as="geometry" />
        </mxCell>
        <mxCell id="uOk9SfMnvMUk-7f9dFpr-232" value="end" style="ellipse;whiteSpace=wrap;html=1;fillColor=#ffcccc;strokeColor=#36393d;rounded=1;arcSize=14;strokeWidth=2;labelBackgroundColor=none;startSize=23;" parent="uOk9SfMnvMUk-7f9dFpr-245" vertex="1">
          <mxGeometry x="980" y="795" width="80" height="80" as="geometry" />
        </mxCell>
        <mxCell id="uOk9SfMnvMUk-7f9dFpr-233" value="" style="edgeStyle=orthogonalEdgeStyle;rounded=0;orthogonalLoop=1;jettySize=auto;html=1;strokeColor=#182E3E;fontFamily=Helvetica;fontSize=12;fontColor=default;startSize=23;" parent="uOk9SfMnvMUk-7f9dFpr-245" source="uOk9SfMnvMUk-7f9dFpr-230" target="uOk9SfMnvMUk-7f9dFpr-232" edge="1">
          <mxGeometry relative="1" as="geometry" />
        </mxCell>
        <mxCell id="uOk9SfMnvMUk-7f9dFpr-235" value="props" style="edgeLabel;html=1;align=center;verticalAlign=middle;resizable=0;points=[];fontSize=12;fontFamily=Helvetica;fontColor=default;" parent="uOk9SfMnvMUk-7f9dFpr-245" vertex="1" connectable="0">
          <mxGeometry x="670.0526315789475" y="939.6315789473683" as="geometry">
            <mxPoint x="-413" y="-22" as="offset" />
          </mxGeometry>
        </mxCell>
        <mxCell id="uOk9SfMnvMUk-7f9dFpr-237" style="edgeStyle=orthogonalEdgeStyle;rounded=0;orthogonalLoop=1;jettySize=auto;html=1;entryX=0;entryY=0.5;entryDx=0;entryDy=0;strokeColor=#182E3E;fontFamily=Helvetica;fontSize=12;fontColor=default;startSize=23;" parent="uOk9SfMnvMUk-7f9dFpr-245" source="uOk9SfMnvMUk-7f9dFpr-236" target="uOk9SfMnvMUk-7f9dFpr-201" edge="1">
          <mxGeometry relative="1" as="geometry" />
        </mxCell>
        <mxCell id="uOk9SfMnvMUk-7f9dFpr-236" value="start" style="ellipse;whiteSpace=wrap;html=1;fillColor=#ffcccc;strokeColor=#36393d;rounded=1;arcSize=14;strokeWidth=2;labelBackgroundColor=none;startSize=23;" parent="uOk9SfMnvMUk-7f9dFpr-245" vertex="1">
          <mxGeometry x="50" y="795" width="80" height="80" as="geometry" />
        </mxCell>
        <mxCell id="uOk9SfMnvMUk-7f9dFpr-311" value="applyMiddleware" style="swimlane;whiteSpace=wrap;html=1;rounded=1;labelBackgroundColor=none;strokeColor=#36393d;strokeWidth=2;fontFamily=Helvetica;fontSize=12;startSize=23;fillColor=#cce5ff;" parent="1" vertex="1">
          <mxGeometry x="-2180" y="2100" width="1160" height="1560" as="geometry" />
        </mxCell>
        <mxCell id="uOk9SfMnvMUk-7f9dFpr-246" value="applyMiddleware" style="rounded=1;whiteSpace=wrap;html=1;absoluteArcSize=1;arcSize=14;strokeWidth=2;labelBackgroundColor=none;strokeColor=#36393d;fontFamily=Helvetica;fontSize=12;fontColor=default;startSize=23;fillColor=#ffcccc;" parent="uOk9SfMnvMUk-7f9dFpr-311" vertex="1">
          <mxGeometry x="180" y="197.5" width="100" height="100" as="geometry" />
        </mxCell>
        <mxCell id="uOk9SfMnvMUk-7f9dFpr-247" value="props" style="swimlane;fontStyle=0;childLayout=stackLayout;horizontal=1;startSize=30;horizontalStack=0;resizeParent=1;resizeParentMax=0;resizeLast=0;collapsible=1;marginBottom=0;whiteSpace=wrap;html=1;labelBackgroundColor=none;strokeColor=#36393d;fontFamily=Helvetica;fontSize=12;fontColor=default;fillColor=#ffcccc;" parent="uOk9SfMnvMUk-7f9dFpr-311" vertex="1">
          <mxGeometry x="130" y="387.5" width="200" height="60" as="geometry" />
        </mxCell>
        <mxCell id="uOk9SfMnvMUk-7f9dFpr-248" value="middlewares: Middleware[]" style="text;strokeColor=none;fillColor=none;align=left;verticalAlign=middle;spacingLeft=4;spacingRight=4;overflow=hidden;points=[[0,0.5],[1,0.5]];portConstraint=eastwest;rotatable=0;whiteSpace=wrap;html=1;fontSize=12;fontFamily=Helvetica;fontColor=default;" parent="uOk9SfMnvMUk-7f9dFpr-247" vertex="1">
          <mxGeometry y="30" width="200" height="30" as="geometry" />
        </mxCell>
        <mxCell id="uOk9SfMnvMUk-7f9dFpr-252" style="edgeStyle=orthogonalEdgeStyle;rounded=0;orthogonalLoop=1;jettySize=auto;html=1;strokeColor=default;fontFamily=Helvetica;fontSize=12;fontColor=default;startSize=23;exitX=0.5;exitY=1;exitDx=0;exitDy=0;entryX=0.5;entryY=0;entryDx=0;entryDy=0;dashed=1;" parent="uOk9SfMnvMUk-7f9dFpr-311" source="uOk9SfMnvMUk-7f9dFpr-246" target="uOk9SfMnvMUk-7f9dFpr-247" edge="1">
          <mxGeometry relative="1" as="geometry">
            <mxPoint x="680" y="-157.5" as="sourcePoint" />
            <mxPoint x="680" y="-72.5" as="targetPoint" />
          </mxGeometry>
        </mxCell>
        <mxCell id="uOk9SfMnvMUk-7f9dFpr-253" value="props" style="edgeLabel;html=1;align=center;verticalAlign=middle;resizable=0;points=[];fontSize=12;fontFamily=Helvetica;fontColor=default;" parent="uOk9SfMnvMUk-7f9dFpr-252" vertex="1" connectable="0">
          <mxGeometry x="0.233" y="2" relative="1" as="geometry">
            <mxPoint x="-2" y="-8" as="offset" />
          </mxGeometry>
        </mxCell>
        <mxCell id="2xPgZ28qMFwk7u2eZPKK-2" style="edgeStyle=orthogonalEdgeStyle;rounded=0;orthogonalLoop=1;jettySize=auto;html=1;" edge="1" parent="uOk9SfMnvMUk-7f9dFpr-311" source="uOk9SfMnvMUk-7f9dFpr-254" target="2xPgZ28qMFwk7u2eZPKK-1">
          <mxGeometry relative="1" as="geometry">
            <Array as="points">
              <mxPoint x="530" y="350" />
              <mxPoint x="530" y="350" />
            </Array>
          </mxGeometry>
        </mxCell>
        <mxCell id="uOk9SfMnvMUk-7f9dFpr-254" value="anonymousFun&lt;br&gt;(redux ehancer)" style="rounded=1;whiteSpace=wrap;html=1;absoluteArcSize=1;arcSize=14;strokeWidth=2;labelBackgroundColor=none;strokeColor=#36393d;fontFamily=Helvetica;fontSize=12;fontColor=default;startSize=23;fillColor=#ffcccc;" parent="uOk9SfMnvMUk-7f9dFpr-311" vertex="1">
          <mxGeometry x="480" y="197.5" width="100" height="100" as="geometry" />
        </mxCell>
        <mxCell id="uOk9SfMnvMUk-7f9dFpr-263" style="edgeStyle=orthogonalEdgeStyle;rounded=0;orthogonalLoop=1;jettySize=auto;html=1;entryX=0;entryY=0.5;entryDx=0;entryDy=0;strokeColor=#000000;fontColor=#5C5C5C;fillColor=#21C0A5;" parent="uOk9SfMnvMUk-7f9dFpr-311" source="uOk9SfMnvMUk-7f9dFpr-246" target="uOk9SfMnvMUk-7f9dFpr-254" edge="1">
          <mxGeometry relative="1" as="geometry" />
        </mxCell>
        <mxCell id="uOk9SfMnvMUk-7f9dFpr-275" value="return" style="edgeLabel;html=1;align=center;verticalAlign=middle;resizable=0;points=[];fontColor=#5C5C5C;" parent="uOk9SfMnvMUk-7f9dFpr-263" vertex="1" connectable="0">
          <mxGeometry x="0.2583" y="1" relative="1" as="geometry">
            <mxPoint x="-15" y="1" as="offset" />
          </mxGeometry>
        </mxCell>
        <mxCell id="uOk9SfMnvMUk-7f9dFpr-256" value="props" style="swimlane;fontStyle=0;childLayout=stackLayout;horizontal=1;startSize=30;horizontalStack=0;resizeParent=1;resizeParentMax=0;resizeLast=0;collapsible=1;marginBottom=0;whiteSpace=wrap;html=1;labelBackgroundColor=none;strokeColor=#36393d;fontFamily=Helvetica;fontSize=12;fontColor=default;fillColor=#ffcccc;" parent="uOk9SfMnvMUk-7f9dFpr-311" vertex="1">
          <mxGeometry x="400" y="52.5" width="260" height="60" as="geometry" />
        </mxCell>
        <mxCell id="uOk9SfMnvMUk-7f9dFpr-257" value="createStore: StoreEnhancerStoreCreator" style="text;strokeColor=none;fillColor=none;align=left;verticalAlign=middle;spacingLeft=4;spacingRight=4;overflow=hidden;points=[[0,0.5],[1,0.5]];portConstraint=eastwest;rotatable=0;whiteSpace=wrap;html=1;fontSize=12;fontFamily=Helvetica;fontColor=default;" parent="uOk9SfMnvMUk-7f9dFpr-256" vertex="1">
          <mxGeometry y="30" width="260" height="30" as="geometry" />
        </mxCell>
        <mxCell id="uOk9SfMnvMUk-7f9dFpr-261" style="edgeStyle=orthogonalEdgeStyle;rounded=0;orthogonalLoop=1;jettySize=auto;html=1;entryX=0.499;entryY=0.967;entryDx=0;entryDy=0;entryPerimeter=0;strokeColor=#000000;fontColor=#5C5C5C;fillColor=#21C0A5;dashed=1;" parent="uOk9SfMnvMUk-7f9dFpr-311" source="uOk9SfMnvMUk-7f9dFpr-254" target="uOk9SfMnvMUk-7f9dFpr-257" edge="1">
          <mxGeometry relative="1" as="geometry" />
        </mxCell>
        <mxCell id="uOk9SfMnvMUk-7f9dFpr-262" value="props" style="edgeLabel;html=1;align=center;verticalAlign=middle;resizable=0;points=[];fontColor=#5C5C5C;" parent="uOk9SfMnvMUk-7f9dFpr-261" vertex="1" connectable="0">
          <mxGeometry x="0.2204" y="1" relative="1" as="geometry">
            <mxPoint x="1" y="8" as="offset" />
          </mxGeometry>
        </mxCell>
        <mxCell id="uOk9SfMnvMUk-7f9dFpr-267" value="Store" style="swimlane;fontStyle=0;childLayout=stackLayout;horizontal=1;startSize=30;horizontalStack=0;resizeParent=1;resizeParentMax=0;resizeLast=0;collapsible=1;marginBottom=0;whiteSpace=wrap;html=1;fillColor=#fad9d5;strokeColor=#ae4132;" parent="uOk9SfMnvMUk-7f9dFpr-311" vertex="1">
          <mxGeometry x="690" y="740.8600000000001" width="240" height="180" as="geometry">
            <mxRectangle x="420" y="400" width="60" height="30" as="alternateBounds" />
          </mxGeometry>
        </mxCell>
        <mxCell id="uOk9SfMnvMUk-7f9dFpr-268" value="dispatch" style="text;strokeColor=#56517e;fillColor=#d0cee2;align=left;verticalAlign=middle;spacingLeft=4;spacingRight=4;overflow=hidden;points=[[0,0.5],[1,0.5]];portConstraint=eastwest;rotatable=0;whiteSpace=wrap;html=1;" parent="uOk9SfMnvMUk-7f9dFpr-267" vertex="1">
          <mxGeometry y="30" width="240" height="30" as="geometry" />
        </mxCell>
        <mxCell id="uOk9SfMnvMUk-7f9dFpr-269" value="subscribe" style="text;strokeColor=none;fillColor=none;align=left;verticalAlign=middle;spacingLeft=4;spacingRight=4;overflow=hidden;points=[[0,0.5],[1,0.5]];portConstraint=eastwest;rotatable=0;whiteSpace=wrap;html=1;" parent="uOk9SfMnvMUk-7f9dFpr-267" vertex="1">
          <mxGeometry y="60" width="240" height="30" as="geometry" />
        </mxCell>
        <mxCell id="uOk9SfMnvMUk-7f9dFpr-270" value="getState" style="text;strokeColor=none;fillColor=none;align=left;verticalAlign=middle;spacingLeft=4;spacingRight=4;overflow=hidden;points=[[0,0.5],[1,0.5]];portConstraint=eastwest;rotatable=0;whiteSpace=wrap;html=1;" parent="uOk9SfMnvMUk-7f9dFpr-267" vertex="1">
          <mxGeometry y="90" width="240" height="30" as="geometry" />
        </mxCell>
        <mxCell id="uOk9SfMnvMUk-7f9dFpr-271" value="replaceReducer" style="text;strokeColor=none;fillColor=none;align=left;verticalAlign=middle;spacingLeft=4;spacingRight=4;overflow=hidden;points=[[0,0.5],[1,0.5]];portConstraint=eastwest;rotatable=0;whiteSpace=wrap;html=1;" parent="uOk9SfMnvMUk-7f9dFpr-267" vertex="1">
          <mxGeometry y="120" width="240" height="30" as="geometry" />
        </mxCell>
        <mxCell id="uOk9SfMnvMUk-7f9dFpr-272" value="[$$observable]: observable" style="text;strokeColor=none;fillColor=none;align=left;verticalAlign=middle;spacingLeft=4;spacingRight=4;overflow=hidden;points=[[0,0.5],[1,0.5]];portConstraint=eastwest;rotatable=0;whiteSpace=wrap;html=1;" parent="uOk9SfMnvMUk-7f9dFpr-267" vertex="1">
          <mxGeometry y="150" width="240" height="30" as="geometry" />
        </mxCell>
        <mxCell id="uOk9SfMnvMUk-7f9dFpr-279" style="edgeStyle=orthogonalEdgeStyle;rounded=0;orthogonalLoop=1;jettySize=auto;html=1;strokeColor=#000000;fontFamily=Helvetica;fontSize=12;fontColor=default;startSize=23;fillColor=#21C0A5;" parent="uOk9SfMnvMUk-7f9dFpr-311" source="uOk9SfMnvMUk-7f9dFpr-278" target="uOk9SfMnvMUk-7f9dFpr-246" edge="1">
          <mxGeometry relative="1" as="geometry" />
        </mxCell>
        <mxCell id="uOk9SfMnvMUk-7f9dFpr-278" value="start" style="strokeWidth=2;html=1;shape=mxgraph.flowchart.start_2;whiteSpace=wrap;rounded=1;labelBackgroundColor=none;strokeColor=#36393d;fontFamily=Helvetica;fontSize=12;fontColor=default;startSize=23;fillColor=#ffcccc;" parent="uOk9SfMnvMUk-7f9dFpr-311" vertex="1">
          <mxGeometry x="20" y="197.5" width="100" height="100" as="geometry" />
        </mxCell>
        <mxCell id="uOk9SfMnvMUk-7f9dFpr-301" style="edgeStyle=orthogonalEdgeStyle;rounded=0;orthogonalLoop=1;jettySize=auto;html=1;entryX=0;entryY=0.5;entryDx=0;entryDy=0;strokeColor=default;fontFamily=Helvetica;fontSize=12;fontColor=default;startSize=23;fillColor=#21C0A5;" parent="uOk9SfMnvMUk-7f9dFpr-311" source="uOk9SfMnvMUk-7f9dFpr-280" target="uOk9SfMnvMUk-7f9dFpr-267" edge="1">
          <mxGeometry relative="1" as="geometry" />
        </mxCell>
        <mxCell id="uOk9SfMnvMUk-7f9dFpr-302" value="return" style="edgeLabel;html=1;align=center;verticalAlign=middle;resizable=0;points=[];fontSize=12;fontFamily=Helvetica;fontColor=default;" parent="uOk9SfMnvMUk-7f9dFpr-301" vertex="1" connectable="0">
          <mxGeometry x="-0.2628" relative="1" as="geometry">
            <mxPoint x="10" as="offset" />
          </mxGeometry>
        </mxCell>
        <mxCell id="uOk9SfMnvMUk-7f9dFpr-280" value="compose anonymouse fun" style="rounded=1;whiteSpace=wrap;html=1;absoluteArcSize=1;arcSize=14;strokeWidth=2;labelBackgroundColor=none;strokeColor=#36393d;fontFamily=Helvetica;fontSize=12;fontColor=default;startSize=23;fillColor=#ffcccc;" parent="uOk9SfMnvMUk-7f9dFpr-311" vertex="1">
          <mxGeometry x="455" y="780.8600000000001" width="150" height="100" as="geometry" />
        </mxCell>
        <mxCell id="uOk9SfMnvMUk-7f9dFpr-281" value="props" style="swimlane;fontStyle=0;childLayout=stackLayout;horizontal=1;startSize=30;horizontalStack=0;resizeParent=1;resizeParentMax=0;resizeLast=0;collapsible=1;marginBottom=0;whiteSpace=wrap;html=1;labelBackgroundColor=none;strokeColor=#36393d;fontFamily=Helvetica;fontSize=12;fontColor=default;fillColor=#ffcccc;" parent="uOk9SfMnvMUk-7f9dFpr-311" vertex="1">
          <mxGeometry x="430" y="960" width="200" height="60" as="geometry" />
        </mxCell>
        <mxCell id="uOk9SfMnvMUk-7f9dFpr-282" value="store.dispatch" style="text;strokeColor=none;fillColor=none;align=left;verticalAlign=middle;spacingLeft=4;spacingRight=4;overflow=hidden;points=[[0,0.5],[1,0.5]];portConstraint=eastwest;rotatable=0;whiteSpace=wrap;html=1;fontSize=12;fontFamily=Helvetica;fontColor=default;" parent="uOk9SfMnvMUk-7f9dFpr-281" vertex="1">
          <mxGeometry y="30" width="200" height="30" as="geometry" />
        </mxCell>
        <mxCell id="uOk9SfMnvMUk-7f9dFpr-283" style="edgeStyle=orthogonalEdgeStyle;rounded=0;orthogonalLoop=1;jettySize=auto;html=1;entryX=0.5;entryY=0;entryDx=0;entryDy=0;strokeColor=#000000;fontFamily=Helvetica;fontSize=12;fontColor=default;startSize=23;fillColor=#21C0A5;dashed=1;" parent="uOk9SfMnvMUk-7f9dFpr-311" source="uOk9SfMnvMUk-7f9dFpr-280" target="uOk9SfMnvMUk-7f9dFpr-281" edge="1">
          <mxGeometry relative="1" as="geometry" />
        </mxCell>
        <mxCell id="uOk9SfMnvMUk-7f9dFpr-307" value="props" style="edgeLabel;html=1;align=center;verticalAlign=middle;resizable=0;points=[];fontSize=12;fontFamily=Helvetica;fontColor=default;" parent="uOk9SfMnvMUk-7f9dFpr-283" vertex="1" connectable="0">
          <mxGeometry x="0.2362" y="2" relative="1" as="geometry">
            <mxPoint x="-2" y="-9" as="offset" />
          </mxGeometry>
        </mxCell>
        <mxCell id="uOk9SfMnvMUk-7f9dFpr-292" style="edgeStyle=orthogonalEdgeStyle;rounded=0;orthogonalLoop=1;jettySize=auto;html=1;entryX=0.5;entryY=0;entryDx=0;entryDy=0;strokeColor=#000000;fontFamily=Helvetica;fontSize=12;fontColor=default;startSize=23;fillColor=#21C0A5;" parent="uOk9SfMnvMUk-7f9dFpr-311" source="uOk9SfMnvMUk-7f9dFpr-289" target="uOk9SfMnvMUk-7f9dFpr-280" edge="1">
          <mxGeometry relative="1" as="geometry" />
        </mxCell>
        <mxCell id="uOk9SfMnvMUk-7f9dFpr-293" value="return" style="edgeLabel;html=1;align=center;verticalAlign=middle;resizable=0;points=[];fontSize=12;fontFamily=Helvetica;fontColor=default;" parent="uOk9SfMnvMUk-7f9dFpr-292" vertex="1" connectable="0">
          <mxGeometry x="-0.1846" relative="1" as="geometry">
            <mxPoint as="offset" />
          </mxGeometry>
        </mxCell>
        <mxCell id="uOk9SfMnvMUk-7f9dFpr-289" value="compose" style="rounded=1;whiteSpace=wrap;html=1;absoluteArcSize=1;arcSize=14;strokeWidth=2;labelBackgroundColor=none;strokeColor=#36393d;fontFamily=Helvetica;fontSize=12;fontColor=default;startSize=23;fillColor=#ffcccc;align=center;" parent="uOk9SfMnvMUk-7f9dFpr-311" vertex="1">
          <mxGeometry x="480" y="590" width="100" height="100" as="geometry" />
        </mxCell>
        <mxCell id="uOk9SfMnvMUk-7f9dFpr-295" style="edgeStyle=orthogonalEdgeStyle;rounded=0;orthogonalLoop=1;jettySize=auto;html=1;entryX=0.5;entryY=0;entryDx=0;entryDy=0;strokeColor=default;fontFamily=Helvetica;fontSize=12;fontColor=default;startSize=23;fillColor=#21C0A5;exitX=0.5;exitY=1;exitDx=0;exitDy=0;" parent="uOk9SfMnvMUk-7f9dFpr-311" source="2xPgZ28qMFwk7u2eZPKK-1" target="uOk9SfMnvMUk-7f9dFpr-289" edge="1">
          <mxGeometry relative="1" as="geometry">
            <mxPoint x="531" y="427.5" as="targetPoint" />
            <mxPoint x="531" y="530" as="sourcePoint" />
          </mxGeometry>
        </mxCell>
        <mxCell id="uOk9SfMnvMUk-7f9dFpr-303" value="props" style="swimlane;fontStyle=0;childLayout=stackLayout;horizontal=1;startSize=30;horizontalStack=0;resizeParent=1;resizeParentMax=0;resizeLast=0;collapsible=1;marginBottom=0;whiteSpace=wrap;html=1;labelBackgroundColor=none;strokeColor=#36393d;fontFamily=Helvetica;fontSize=12;fontColor=default;fillColor=#ffcccc;" parent="uOk9SfMnvMUk-7f9dFpr-311" vertex="1">
          <mxGeometry x="665" y="610" width="200" height="60" as="geometry" />
        </mxCell>
        <mxCell id="uOk9SfMnvMUk-7f9dFpr-304" value="funcs: Function[]" style="text;strokeColor=none;fillColor=none;align=left;verticalAlign=middle;spacingLeft=4;spacingRight=4;overflow=hidden;points=[[0,0.5],[1,0.5]];portConstraint=eastwest;rotatable=0;whiteSpace=wrap;html=1;fontSize=12;fontFamily=Helvetica;fontColor=default;" parent="uOk9SfMnvMUk-7f9dFpr-303" vertex="1">
          <mxGeometry y="30" width="200" height="30" as="geometry" />
        </mxCell>
        <mxCell id="uOk9SfMnvMUk-7f9dFpr-305" style="edgeStyle=orthogonalEdgeStyle;rounded=0;orthogonalLoop=1;jettySize=auto;html=1;entryX=0;entryY=0.5;entryDx=0;entryDy=0;strokeColor=#000000;fontFamily=Helvetica;fontSize=12;fontColor=default;startSize=23;fillColor=#21C0A5;dashed=1;exitX=1;exitY=0.5;exitDx=0;exitDy=0;" parent="uOk9SfMnvMUk-7f9dFpr-311" source="uOk9SfMnvMUk-7f9dFpr-289" target="uOk9SfMnvMUk-7f9dFpr-303" edge="1">
          <mxGeometry relative="1" as="geometry">
            <mxPoint x="540" y="890.8600000000006" as="sourcePoint" />
            <mxPoint x="540" y="950.8600000000006" as="targetPoint" />
          </mxGeometry>
        </mxCell>
        <mxCell id="uOk9SfMnvMUk-7f9dFpr-306" value="props" style="edgeLabel;html=1;align=center;verticalAlign=middle;resizable=0;points=[];fontSize=12;fontFamily=Helvetica;fontColor=default;" parent="uOk9SfMnvMUk-7f9dFpr-305" vertex="1" connectable="0">
          <mxGeometry x="-0.222" y="-1" relative="1" as="geometry">
            <mxPoint x="7" y="-1" as="offset" />
          </mxGeometry>
        </mxCell>
        <mxCell id="uOk9SfMnvMUk-7f9dFpr-309" value="end" style="strokeWidth=2;html=1;shape=mxgraph.flowchart.start_2;whiteSpace=wrap;rounded=1;labelBackgroundColor=none;strokeColor=#36393d;fontFamily=Helvetica;fontSize=12;fontColor=default;startSize=23;fillColor=#ffcccc;" parent="uOk9SfMnvMUk-7f9dFpr-311" vertex="1">
          <mxGeometry x="1010.05" y="780.8600000000001" width="100" height="100" as="geometry" />
        </mxCell>
        <mxCell id="uOk9SfMnvMUk-7f9dFpr-310" value="" style="endArrow=classic;html=1;rounded=0;strokeColor=default;fontFamily=Helvetica;fontSize=12;fontColor=default;startSize=23;fillColor=#21C0A5;entryX=0;entryY=0.5;entryDx=0;entryDy=0;entryPerimeter=0;exitX=1.003;exitY=0.038;exitDx=0;exitDy=0;exitPerimeter=0;" parent="uOk9SfMnvMUk-7f9dFpr-311" source="uOk9SfMnvMUk-7f9dFpr-270" target="uOk9SfMnvMUk-7f9dFpr-309" edge="1">
          <mxGeometry width="50" height="50" relative="1" as="geometry">
            <mxPoint x="950" y="860" as="sourcePoint" />
            <mxPoint x="920" y="730" as="targetPoint" />
          </mxGeometry>
        </mxCell>
        <mxCell id="uOk9SfMnvMUk-7f9dFpr-169" value="compose" style="swimlane;whiteSpace=wrap;html=1;labelBackgroundColor=none;strokeColor=#36393d;fillColor=#cdeb8b;" parent="uOk9SfMnvMUk-7f9dFpr-311" vertex="1">
          <mxGeometry x="665" y="132.5" width="470" height="230" as="geometry" />
        </mxCell>
        <mxCell id="uOk9SfMnvMUk-7f9dFpr-170" value="props" style="swimlane;fontStyle=0;childLayout=stackLayout;horizontal=1;startSize=30;horizontalStack=0;resizeParent=1;resizeParentMax=0;resizeLast=0;collapsible=1;marginBottom=0;whiteSpace=wrap;html=1;fillColor=#fad7ac;strokeColor=#b46504;" parent="uOk9SfMnvMUk-7f9dFpr-169" vertex="1">
          <mxGeometry x="20" y="40" width="180" height="60" as="geometry">
            <mxRectangle x="-540" y="1390" width="140" height="30" as="alternateBounds" />
          </mxGeometry>
        </mxCell>
        <mxCell id="uOk9SfMnvMUk-7f9dFpr-171" value="funcs: Function[]" style="text;strokeColor=none;fillColor=none;align=left;verticalAlign=middle;spacingLeft=4;spacingRight=4;overflow=hidden;points=[[0,0.5],[1,0.5]];portConstraint=eastwest;rotatable=0;whiteSpace=wrap;html=1;" parent="uOk9SfMnvMUk-7f9dFpr-170" vertex="1">
          <mxGeometry y="30" width="180" height="30" as="geometry" />
        </mxCell>
        <mxCell id="uOk9SfMnvMUk-7f9dFpr-172" value="main" style="swimlane;whiteSpace=wrap;html=1;labelBackgroundColor=none;strokeColor=#b46504;fillColor=#fad7ac;" parent="uOk9SfMnvMUk-7f9dFpr-169" vertex="1">
          <mxGeometry x="220" y="40" width="220" height="170" as="geometry" />
        </mxCell>
        <mxCell id="uOk9SfMnvMUk-7f9dFpr-173" value="&lt;div style=&quot;color: rgb(171, 178, 191); background-color: rgb(40, 44, 52); font-family: Consolas, &amp;quot;Courier New&amp;quot;, monospace; font-size: 14px; line-height: 19px;&quot;&gt;&lt;div&gt;&amp;nbsp; return funcs.&lt;span style=&quot;color: #61afef;&quot;&gt;reduce&lt;/span&gt;(&lt;/div&gt;&lt;div&gt;&amp;nbsp; &amp;nbsp; (a, b) &lt;span style=&quot;color: #c678dd;&quot;&gt;=&amp;gt;&lt;/span&gt;&lt;/div&gt;&lt;div&gt;&amp;nbsp; &amp;nbsp; &amp;nbsp; (&lt;span style=&quot;color: #56b6c2;&quot;&gt;...&lt;/span&gt;args&lt;span style=&quot;color: #56b6c2;&quot;&gt;:&lt;/span&gt; &lt;span style=&quot;color: #56b6c2;&quot;&gt;any&lt;/span&gt;) &lt;span style=&quot;color: #c678dd;&quot;&gt;=&amp;gt;&amp;nbsp;&amp;nbsp;&lt;/span&gt;&lt;/div&gt;&lt;div&gt;&amp;nbsp; &amp;nbsp; &amp;nbsp; &amp;nbsp; &lt;span style=&quot;color: #61afef;&quot;&gt;a&lt;/span&gt;(&lt;span style=&quot;color: #61afef;&quot;&gt;b&lt;/span&gt;(&lt;span style=&quot;color: #56b6c2;&quot;&gt;...&lt;/span&gt;&lt;span style=&quot;color: #e06c75;&quot;&gt;args&lt;/span&gt;))&lt;/div&gt;&lt;div&gt;&amp;nbsp; )&lt;/div&gt;&lt;/div&gt;" style="text;html=1;strokeColor=none;fillColor=none;align=left;verticalAlign=top;whiteSpace=wrap;rounded=0;fontColor=#1A1A1A;" parent="uOk9SfMnvMUk-7f9dFpr-172" vertex="1">
          <mxGeometry x="10" y="30" width="200" height="110" as="geometry" />
        </mxCell>
        <mxCell id="uOk9SfMnvMUk-7f9dFpr-174" value="return" style="swimlane;fontStyle=0;childLayout=stackLayout;horizontal=1;startSize=30;horizontalStack=0;resizeParent=1;resizeParentMax=0;resizeLast=0;collapsible=1;marginBottom=0;whiteSpace=wrap;html=1;fillColor=#fad7ac;strokeColor=#b46504;" parent="uOk9SfMnvMUk-7f9dFpr-169" vertex="1">
          <mxGeometry x="20" y="120" width="180" height="90" as="geometry">
            <mxRectangle x="-540" y="1390" width="140" height="30" as="alternateBounds" />
          </mxGeometry>
        </mxCell>
        <mxCell id="uOk9SfMnvMUk-7f9dFpr-175" value="&lt;div style=&quot;color: rgb(171, 178, 191); background-color: rgb(40, 44, 52); font-family: Consolas, &amp;quot;Courier New&amp;quot;, monospace; font-size: 14px; line-height: 19px;&quot;&gt;&lt;div&gt;&amp;nbsp;(...args&lt;span style=&quot;color: #56b6c2;&quot;&gt;:&lt;/span&gt; &lt;span style=&quot;color: #56b6c2;&quot;&gt;any&lt;/span&gt;) &lt;span style=&quot;color: #c678dd;&quot;&gt;=&amp;gt;&lt;/span&gt;&lt;/div&gt;&lt;div&gt;&amp;nbsp; &amp;nbsp; &amp;nbsp; &amp;nbsp; &lt;span style=&quot;color: #61afef;&quot;&gt;a&lt;/span&gt;(&lt;span style=&quot;color: #61afef;&quot;&gt;b&lt;/span&gt;(&lt;span style=&quot;color: #56b6c2;&quot;&gt;...&lt;/span&gt;&lt;span style=&quot;color: #e06c75;&quot;&gt;args&lt;/span&gt;))&amp;nbsp;&lt;/div&gt;&lt;/div&gt;" style="text;strokeColor=none;fillColor=none;align=left;verticalAlign=middle;spacingLeft=4;spacingRight=4;overflow=hidden;points=[[0,0.5],[1,0.5]];portConstraint=eastwest;rotatable=0;whiteSpace=wrap;html=1;" parent="uOk9SfMnvMUk-7f9dFpr-174" vertex="1">
          <mxGeometry y="30" width="180" height="60" as="geometry" />
        </mxCell>
        <mxCell id="uOk9SfMnvMUk-7f9dFpr-168" value="anonymousFun(redux enhancer)" style="swimlane;whiteSpace=wrap;html=1;labelBackgroundColor=none;fillColor=#b0e3e6;strokeColor=#0e8088;" parent="uOk9SfMnvMUk-7f9dFpr-311" vertex="1">
          <mxGeometry x="90" y="1170" width="640" height="360" as="geometry" />
        </mxCell>
        <mxCell id="uOk9SfMnvMUk-7f9dFpr-103" value="main" style="swimlane;whiteSpace=wrap;html=1;strokeColor=#b46504;fillColor=#fad7ac;labelBackgroundColor=none;labelBorderColor=none;" parent="uOk9SfMnvMUk-7f9dFpr-168" vertex="1">
          <mxGeometry x="310" y="40" width="310" height="302" as="geometry" />
        </mxCell>
        <mxCell id="uOk9SfMnvMUk-7f9dFpr-106" value="override dispatch" style="text;strokeColor=none;fillColor=none;align=left;verticalAlign=middle;spacingLeft=4;spacingRight=4;overflow=hidden;points=[[0,0.5],[1,0.5]];portConstraint=eastwest;rotatable=0;whiteSpace=wrap;html=1;" parent="uOk9SfMnvMUk-7f9dFpr-103" vertex="1">
          <mxGeometry y="50" width="200" height="30" as="geometry" />
        </mxCell>
        <mxCell id="uOk9SfMnvMUk-7f9dFpr-107" value="middlewareAPI = { getState: state.getState, dispatch }" style="text;strokeColor=none;fillColor=none;align=left;verticalAlign=middle;spacingLeft=4;spacingRight=4;overflow=hidden;points=[[0,0.5],[1,0.5]];portConstraint=eastwest;rotatable=0;whiteSpace=wrap;html=1;" parent="uOk9SfMnvMUk-7f9dFpr-103" vertex="1">
          <mxGeometry y="80" width="300" height="30" as="geometry" />
        </mxCell>
        <mxCell id="uOk9SfMnvMUk-7f9dFpr-108" value="chain = middlewares.map((m) =&amp;gt; m(middlewareAPI))" style="text;strokeColor=#10739e;fillColor=#b1ddf0;align=left;verticalAlign=middle;spacingLeft=4;spacingRight=4;overflow=hidden;points=[[0,0.5],[1,0.5]];portConstraint=eastwest;rotatable=0;whiteSpace=wrap;html=1;" parent="uOk9SfMnvMUk-7f9dFpr-103" vertex="1">
          <mxGeometry y="110" width="310" height="30" as="geometry" />
        </mxCell>
        <mxCell id="uOk9SfMnvMUk-7f9dFpr-109" value="dispatch = compose(...chain)(store.dispatch)" style="text;strokeColor=#56517e;fillColor=#d0cee2;align=left;verticalAlign=middle;spacingLeft=4;spacingRight=4;overflow=hidden;points=[[0,0.5],[1,0.5]];portConstraint=eastwest;rotatable=0;whiteSpace=wrap;html=1;" parent="uOk9SfMnvMUk-7f9dFpr-103" vertex="1">
          <mxGeometry y="140" width="310" height="30" as="geometry" />
        </mxCell>
        <mxCell id="uOk9SfMnvMUk-7f9dFpr-110" value="return { ...store, dispatch }" style="text;strokeColor=none;fillColor=none;align=left;verticalAlign=middle;spacingLeft=4;spacingRight=4;overflow=hidden;points=[[0,0.5],[1,0.5]];portConstraint=eastwest;rotatable=0;whiteSpace=wrap;html=1;" parent="uOk9SfMnvMUk-7f9dFpr-103" vertex="1">
          <mxGeometry y="170" width="300" height="30" as="geometry" />
        </mxCell>
        <mxCell id="uOk9SfMnvMUk-7f9dFpr-105" value="store = createStore(reducer, preloadedState)" style="text;strokeColor=none;fillColor=none;align=left;verticalAlign=middle;spacingLeft=4;spacingRight=4;overflow=hidden;points=[[0,0.5],[1,0.5]];portConstraint=eastwest;rotatable=0;whiteSpace=wrap;html=1;" parent="uOk9SfMnvMUk-7f9dFpr-103" vertex="1">
          <mxGeometry y="20" width="270" height="30" as="geometry" />
        </mxCell>
        <mxCell id="uOk9SfMnvMUk-7f9dFpr-119" value="props" style="swimlane;fontStyle=0;childLayout=stackLayout;horizontal=1;startSize=30;horizontalStack=0;resizeParent=1;resizeParentMax=0;resizeLast=0;collapsible=1;marginBottom=0;whiteSpace=wrap;html=1;fillColor=#fad7ac;strokeColor=#b46504;" parent="uOk9SfMnvMUk-7f9dFpr-168" vertex="1">
          <mxGeometry x="20" y="40" width="260" height="60" as="geometry">
            <mxRectangle x="-540" y="1390" width="140" height="30" as="alternateBounds" />
          </mxGeometry>
        </mxCell>
        <mxCell id="uOk9SfMnvMUk-7f9dFpr-120" value="createStore: StoreEnhancerStoreCreator" style="text;strokeColor=none;fillColor=none;align=left;verticalAlign=middle;spacingLeft=4;spacingRight=4;overflow=hidden;points=[[0,0.5],[1,0.5]];portConstraint=eastwest;rotatable=0;whiteSpace=wrap;html=1;" parent="uOk9SfMnvMUk-7f9dFpr-119" vertex="1">
          <mxGeometry y="30" width="260" height="30" as="geometry" />
        </mxCell>
        <mxCell id="uOk9SfMnvMUk-7f9dFpr-132" value="return" style="swimlane;whiteSpace=wrap;html=1;strokeColor=#b46504;fillColor=#fad7ac;labelBackgroundColor=none;labelBorderColor=none;" parent="uOk9SfMnvMUk-7f9dFpr-168" vertex="1">
          <mxGeometry x="20" y="120" width="260" height="222" as="geometry" />
        </mxCell>
        <mxCell id="uOk9SfMnvMUk-7f9dFpr-145" value="Store" style="swimlane;fontStyle=0;childLayout=stackLayout;horizontal=1;startSize=30;horizontalStack=0;resizeParent=1;resizeParentMax=0;resizeLast=0;collapsible=1;marginBottom=0;whiteSpace=wrap;html=1;fillColor=#fad9d5;strokeColor=#ae4132;" parent="uOk9SfMnvMUk-7f9dFpr-132" vertex="1">
          <mxGeometry x="10" y="30" width="240" height="180" as="geometry">
            <mxRectangle x="420" y="400" width="60" height="30" as="alternateBounds" />
          </mxGeometry>
        </mxCell>
        <mxCell id="uOk9SfMnvMUk-7f9dFpr-146" value="dispatch" style="text;strokeColor=#56517e;fillColor=#d0cee2;align=left;verticalAlign=middle;spacingLeft=4;spacingRight=4;overflow=hidden;points=[[0,0.5],[1,0.5]];portConstraint=eastwest;rotatable=0;whiteSpace=wrap;html=1;" parent="uOk9SfMnvMUk-7f9dFpr-145" vertex="1">
          <mxGeometry y="30" width="240" height="30" as="geometry" />
        </mxCell>
        <mxCell id="uOk9SfMnvMUk-7f9dFpr-147" value="subscribe" style="text;strokeColor=none;fillColor=none;align=left;verticalAlign=middle;spacingLeft=4;spacingRight=4;overflow=hidden;points=[[0,0.5],[1,0.5]];portConstraint=eastwest;rotatable=0;whiteSpace=wrap;html=1;" parent="uOk9SfMnvMUk-7f9dFpr-145" vertex="1">
          <mxGeometry y="60" width="240" height="30" as="geometry" />
        </mxCell>
        <mxCell id="uOk9SfMnvMUk-7f9dFpr-148" value="getState" style="text;strokeColor=none;fillColor=none;align=left;verticalAlign=middle;spacingLeft=4;spacingRight=4;overflow=hidden;points=[[0,0.5],[1,0.5]];portConstraint=eastwest;rotatable=0;whiteSpace=wrap;html=1;" parent="uOk9SfMnvMUk-7f9dFpr-145" vertex="1">
          <mxGeometry y="90" width="240" height="30" as="geometry" />
        </mxCell>
        <mxCell id="uOk9SfMnvMUk-7f9dFpr-149" value="replaceReducer" style="text;strokeColor=none;fillColor=none;align=left;verticalAlign=middle;spacingLeft=4;spacingRight=4;overflow=hidden;points=[[0,0.5],[1,0.5]];portConstraint=eastwest;rotatable=0;whiteSpace=wrap;html=1;" parent="uOk9SfMnvMUk-7f9dFpr-145" vertex="1">
          <mxGeometry y="120" width="240" height="30" as="geometry" />
        </mxCell>
        <mxCell id="uOk9SfMnvMUk-7f9dFpr-150" value="[$$observable]: observable" style="text;strokeColor=none;fillColor=none;align=left;verticalAlign=middle;spacingLeft=4;spacingRight=4;overflow=hidden;points=[[0,0.5],[1,0.5]];portConstraint=eastwest;rotatable=0;whiteSpace=wrap;html=1;" parent="uOk9SfMnvMUk-7f9dFpr-145" vertex="1">
          <mxGeometry y="150" width="240" height="30" as="geometry" />
        </mxCell>
        <mxCell id="2xPgZ28qMFwk7u2eZPKK-1" value="chain = middlewares.map(m =&amp;gt; m(middlewareAPI))" style="rounded=1;whiteSpace=wrap;html=1;absoluteArcSize=1;arcSize=14;strokeWidth=2;labelBackgroundColor=none;strokeColor=#36393d;fontFamily=Helvetica;fontSize=12;fontColor=default;startSize=23;fillColor=#ffcccc;" vertex="1" parent="uOk9SfMnvMUk-7f9dFpr-311">
          <mxGeometry x="360" y="420" width="340" height="100" as="geometry" />
        </mxCell>
        <mxCell id="2xPgZ28qMFwk7u2eZPKK-3" value="middlewareAPI = {&lt;br&gt;&amp;nbsp; &amp;nbsp; getState: store.getState,&lt;br&gt;&amp;nbsp; &amp;nbsp; dispatch: () =&amp;gt; throw error&lt;br&gt;}" style="edgeLabel;html=1;align=left;verticalAlign=middle;resizable=0;points=[];fontSize=12;fontFamily=Helvetica;fontColor=default;" vertex="1" connectable="0" parent="uOk9SfMnvMUk-7f9dFpr-311">
          <mxGeometry x="470" y="362.4985714285717" as="geometry">
            <mxPoint x="-8" y="-4" as="offset" />
          </mxGeometry>
        </mxCell>
        <mxCell id="uOk9SfMnvMUk-7f9dFpr-312" value="Other Defines" style="swimlane;whiteSpace=wrap;html=1;rounded=1;labelBackgroundColor=none;strokeColor=#36393d;strokeWidth=2;fontFamily=Helvetica;fontSize=12;fontColor=default;startSize=23;fillColor=#ffcccc;" parent="1" vertex="1">
          <mxGeometry x="-890" y="1420" width="1300" height="850" as="geometry" />
        </mxCell>
        <mxCell id="uOk9SfMnvMUk-7f9dFpr-8" value="Class: MiddlewareArray" style="swimlane;fontStyle=0;childLayout=stackLayout;horizontal=1;startSize=30;horizontalStack=0;resizeParent=1;resizeParentMax=0;resizeLast=0;collapsible=1;marginBottom=0;whiteSpace=wrap;html=1;fillColor=#f9f7ed;strokeColor=#36393d;" parent="uOk9SfMnvMUk-7f9dFpr-312" vertex="1">
          <mxGeometry x="380" y="250" width="480" height="210" as="geometry">
            <mxRectangle x="420" y="400" width="60" height="30" as="alternateBounds" />
          </mxGeometry>
        </mxCell>
        <mxCell id="uOk9SfMnvMUk-7f9dFpr-9" value="constructor: super;" style="text;strokeColor=none;fillColor=none;align=left;verticalAlign=middle;spacingLeft=4;spacingRight=4;overflow=hidden;points=[[0,0.5],[1,0.5]];portConstraint=eastwest;rotatable=0;whiteSpace=wrap;html=1;" parent="uOk9SfMnvMUk-7f9dFpr-8" vertex="1">
          <mxGeometry y="30" width="480" height="30" as="geometry" />
        </mxCell>
        <mxCell id="uOk9SfMnvMUk-7f9dFpr-31" value="concat(items: Middleware[]) =&amp;gt; MiddlewareArray" style="text;strokeColor=none;fillColor=none;align=left;verticalAlign=middle;spacingLeft=4;spacingRight=4;overflow=hidden;points=[[0,0.5],[1,0.5]];portConstraint=eastwest;rotatable=0;whiteSpace=wrap;html=1;" parent="uOk9SfMnvMUk-7f9dFpr-8" vertex="1">
          <mxGeometry y="60" width="480" height="30" as="geometry" />
        </mxCell>
        <mxCell id="uOk9SfMnvMUk-7f9dFpr-30" value="concat(...items: Middleware[]) =&amp;gt; MiddlewareArray" style="text;strokeColor=none;fillColor=none;align=left;verticalAlign=middle;spacingLeft=4;spacingRight=4;overflow=hidden;points=[[0,0.5],[1,0.5]];portConstraint=eastwest;rotatable=0;whiteSpace=wrap;html=1;" parent="uOk9SfMnvMUk-7f9dFpr-8" vertex="1">
          <mxGeometry y="90" width="480" height="30" as="geometry" />
        </mxCell>
        <mxCell id="uOk9SfMnvMUk-7f9dFpr-28" value="prepend(items: Middleware[]) =&amp;gt; MiddlewareArray" style="text;strokeColor=none;fillColor=none;align=left;verticalAlign=middle;spacingLeft=4;spacingRight=4;overflow=hidden;points=[[0,0.5],[1,0.5]];portConstraint=eastwest;rotatable=0;whiteSpace=wrap;html=1;" parent="uOk9SfMnvMUk-7f9dFpr-8" vertex="1">
          <mxGeometry y="120" width="480" height="30" as="geometry" />
        </mxCell>
        <mxCell id="uOk9SfMnvMUk-7f9dFpr-27" value="prepend(...items: Middleware[]) =&amp;gt; MiddlewareArray" style="text;strokeColor=none;fillColor=none;align=left;verticalAlign=middle;spacingLeft=4;spacingRight=4;overflow=hidden;points=[[0,0.5],[1,0.5]];portConstraint=eastwest;rotatable=0;whiteSpace=wrap;html=1;" parent="uOk9SfMnvMUk-7f9dFpr-8" vertex="1">
          <mxGeometry y="150" width="480" height="30" as="geometry" />
        </mxCell>
        <mxCell id="uOk9SfMnvMUk-7f9dFpr-50" value="static get [Symbol.species](): return MiddlewareArray as any;" style="text;strokeColor=none;fillColor=none;align=left;verticalAlign=middle;spacingLeft=4;spacingRight=4;overflow=hidden;points=[[0,0.5],[1,0.5]];portConstraint=eastwest;rotatable=0;whiteSpace=wrap;html=1;fontColor=#FF8000;fontStyle=1" parent="uOk9SfMnvMUk-7f9dFpr-8" vertex="1">
          <mxGeometry y="180" width="480" height="30" as="geometry" />
        </mxCell>
        <mxCell id="uOk9SfMnvMUk-7f9dFpr-16" value="Class: Array" style="swimlane;fontStyle=0;childLayout=stackLayout;horizontal=1;startSize=30;horizontalStack=0;resizeParent=1;resizeParentMax=0;resizeLast=0;collapsible=1;marginBottom=0;whiteSpace=wrap;html=1;fillColor=#f9f7ed;strokeColor=#36393d;" parent="uOk9SfMnvMUk-7f9dFpr-312" vertex="1">
          <mxGeometry x="160" y="250" width="140" height="180" as="geometry" />
        </mxCell>
        <mxCell id="uOk9SfMnvMUk-7f9dFpr-17" value="slice" style="text;strokeColor=none;fillColor=none;align=left;verticalAlign=middle;spacingLeft=4;spacingRight=4;overflow=hidden;points=[[0,0.5],[1,0.5]];portConstraint=eastwest;rotatable=0;whiteSpace=wrap;html=1;" parent="uOk9SfMnvMUk-7f9dFpr-16" vertex="1">
          <mxGeometry y="30" width="140" height="30" as="geometry" />
        </mxCell>
        <mxCell id="uOk9SfMnvMUk-7f9dFpr-18" value="push" style="text;strokeColor=none;fillColor=none;align=left;verticalAlign=middle;spacingLeft=4;spacingRight=4;overflow=hidden;points=[[0,0.5],[1,0.5]];portConstraint=eastwest;rotatable=0;whiteSpace=wrap;html=1;" parent="uOk9SfMnvMUk-7f9dFpr-16" vertex="1">
          <mxGeometry y="60" width="140" height="30" as="geometry" />
        </mxCell>
        <mxCell id="uOk9SfMnvMUk-7f9dFpr-19" value="pop" style="text;strokeColor=none;fillColor=none;align=left;verticalAlign=middle;spacingLeft=4;spacingRight=4;overflow=hidden;points=[[0,0.5],[1,0.5]];portConstraint=eastwest;rotatable=0;whiteSpace=wrap;html=1;" parent="uOk9SfMnvMUk-7f9dFpr-16" vertex="1">
          <mxGeometry y="90" width="140" height="30" as="geometry" />
        </mxCell>
        <mxCell id="uOk9SfMnvMUk-7f9dFpr-20" value="unshift" style="text;strokeColor=none;fillColor=none;align=left;verticalAlign=middle;spacingLeft=4;spacingRight=4;overflow=hidden;points=[[0,0.5],[1,0.5]];portConstraint=eastwest;rotatable=0;whiteSpace=wrap;html=1;" parent="uOk9SfMnvMUk-7f9dFpr-16" vertex="1">
          <mxGeometry y="120" width="140" height="30" as="geometry" />
        </mxCell>
        <mxCell id="uOk9SfMnvMUk-7f9dFpr-21" value="..." style="text;strokeColor=none;fillColor=none;align=left;verticalAlign=middle;spacingLeft=4;spacingRight=4;overflow=hidden;points=[[0,0.5],[1,0.5]];portConstraint=eastwest;rotatable=0;whiteSpace=wrap;html=1;" parent="uOk9SfMnvMUk-7f9dFpr-16" vertex="1">
          <mxGeometry y="150" width="140" height="30" as="geometry" />
        </mxCell>
        <mxCell id="uOk9SfMnvMUk-7f9dFpr-22" style="edgeStyle=orthogonalEdgeStyle;rounded=0;orthogonalLoop=1;jettySize=auto;html=1;entryX=0;entryY=0.5;entryDx=0;entryDy=0;" parent="uOk9SfMnvMUk-7f9dFpr-312" source="uOk9SfMnvMUk-7f9dFpr-17" target="uOk9SfMnvMUk-7f9dFpr-9" edge="1">
          <mxGeometry relative="1" as="geometry" />
        </mxCell>
        <mxCell id="uOk9SfMnvMUk-7f9dFpr-51" value="getDefaultMiddleware" style="swimlane;whiteSpace=wrap;html=1;strokeColor=#36393d;fillColor=#eeeeee;" parent="uOk9SfMnvMUk-7f9dFpr-312" vertex="1">
          <mxGeometry x="380" y="515" width="550" height="285" as="geometry" />
        </mxCell>
        <mxCell id="uOk9SfMnvMUk-7f9dFpr-52" value="&lt;span style=&quot;font-weight: normal;&quot;&gt;&lt;font color=&quot;#000000&quot;&gt;middlewareArray = new MiddlewareArray()&lt;/font&gt;&lt;/span&gt;" style="text;strokeColor=none;fillColor=none;align=left;verticalAlign=middle;spacingLeft=4;spacingRight=4;overflow=hidden;points=[[0,0.5],[1,0.5]];portConstraint=eastwest;rotatable=0;whiteSpace=wrap;html=1;fontColor=#FF0000;fontStyle=1" parent="uOk9SfMnvMUk-7f9dFpr-51" vertex="1">
          <mxGeometry x="10" y="30" width="350" height="30" as="geometry" />
        </mxCell>
        <mxCell id="uOk9SfMnvMUk-7f9dFpr-53" value="if thunk middlewareArray.push(thunkMiddleware)" style="text;strokeColor=none;fillColor=none;align=left;verticalAlign=middle;spacingLeft=4;spacingRight=4;overflow=hidden;points=[[0,0.5],[1,0.5]];portConstraint=eastwest;rotatable=0;whiteSpace=wrap;html=1;fontStyle=1;fontColor=#FF8000;" parent="uOk9SfMnvMUk-7f9dFpr-51" vertex="1">
          <mxGeometry x="10" y="60" width="330" height="30" as="geometry" />
        </mxCell>
        <mxCell id="uOk9SfMnvMUk-7f9dFpr-54" value="&lt;p style=&quot;line-height: 150%;&quot;&gt;if process.env.NODE_ENV === &#39;production&#39;&lt;/p&gt;&lt;p style=&quot;line-height: 150%;&quot;&gt;&lt;span style=&quot;white-space: pre;&quot;&gt; &lt;/span&gt;if immutableCheck&lt;br&gt;&lt;/p&gt;&lt;p style=&quot;line-height: 150%;&quot;&gt;&lt;span style=&quot;white-space: pre;&quot;&gt; &lt;/span&gt;&lt;span style=&quot;white-space: pre;&quot;&gt; &lt;/span&gt;middlewareArray.unshift(createImmutableStateInvariantMiddleware(immutableOptions))&lt;br&gt;&lt;/p&gt;&lt;p style=&quot;line-height: 150%;&quot;&gt;&lt;span style=&quot;white-space: pre;&quot;&gt; &lt;/span&gt;if serializableCheck&lt;br&gt;&lt;/p&gt;&lt;p style=&quot;line-height: 150%;&quot;&gt;&lt;span style=&quot;white-space: pre;&quot;&gt; &lt;/span&gt;&lt;span style=&quot;white-space: pre;&quot;&gt; &lt;/span&gt;middlewareArray.push(createSerializableStateInvariantMiddleware(serializableOptions))&lt;br&gt;&lt;/p&gt;" style="text;strokeColor=none;fillColor=none;align=left;verticalAlign=top;spacingLeft=4;spacingRight=4;overflow=hidden;points=[[0,0.5],[1,0.5]];portConstraint=eastwest;rotatable=0;whiteSpace=wrap;html=1;labelBackgroundColor=default;" parent="uOk9SfMnvMUk-7f9dFpr-51" vertex="1">
          <mxGeometry x="10" y="90" width="530" height="180" as="geometry" />
        </mxCell>
        <mxCell id="uOk9SfMnvMUk-7f9dFpr-58" value="getDefaultMiddlewareProps" style="swimlane;fontStyle=0;childLayout=stackLayout;horizontal=1;startSize=30;horizontalStack=0;resizeParent=1;resizeParentMax=0;resizeLast=0;collapsible=1;marginBottom=0;whiteSpace=wrap;html=1;fillColor=#eeeeee;strokeColor=#36393d;" parent="uOk9SfMnvMUk-7f9dFpr-312" vertex="1">
          <mxGeometry x="30" y="540" width="280" height="60" as="geometry">
            <mxRectangle x="420" y="400" width="60" height="30" as="alternateBounds" />
          </mxGeometry>
        </mxCell>
        <mxCell id="uOk9SfMnvMUk-7f9dFpr-59" value="options: Partial&amp;lt;GetDefaultMiddlewareOptions&amp;gt;" style="text;strokeColor=none;fillColor=none;align=left;verticalAlign=middle;spacingLeft=4;spacingRight=4;overflow=hidden;points=[[0,0.5],[1,0.5]];portConstraint=eastwest;rotatable=0;whiteSpace=wrap;html=1;" parent="uOk9SfMnvMUk-7f9dFpr-58" vertex="1">
          <mxGeometry y="30" width="280" height="30" as="geometry" />
        </mxCell>
        <mxCell id="uOk9SfMnvMUk-7f9dFpr-60" value="middlewareArray" style="swimlane;fontStyle=0;childLayout=stackLayout;horizontal=1;startSize=30;horizontalStack=0;resizeParent=1;resizeParentMax=0;resizeLast=0;collapsible=1;marginBottom=0;whiteSpace=wrap;html=1;fillColor=#eeeeee;strokeColor=#36393d;" parent="uOk9SfMnvMUk-7f9dFpr-312" vertex="1">
          <mxGeometry x="1010" y="540" width="240" height="60" as="geometry">
            <mxRectangle x="420" y="400" width="60" height="30" as="alternateBounds" />
          </mxGeometry>
        </mxCell>
        <mxCell id="uOk9SfMnvMUk-7f9dFpr-61" value="type: instanceof MiddlewareArray" style="text;strokeColor=none;fillColor=none;align=left;verticalAlign=middle;spacingLeft=4;spacingRight=4;overflow=hidden;points=[[0,0.5],[1,0.5]];portConstraint=eastwest;rotatable=0;whiteSpace=wrap;html=1;" parent="uOk9SfMnvMUk-7f9dFpr-60" vertex="1">
          <mxGeometry y="30" width="240" height="30" as="geometry" />
        </mxCell>
        <mxCell id="uOk9SfMnvMUk-7f9dFpr-62" value="" style="endArrow=classic;html=1;rounded=0;exitX=1;exitY=0.5;exitDx=0;exitDy=0;entryX=0;entryY=0.25;entryDx=0;entryDy=0;" parent="uOk9SfMnvMUk-7f9dFpr-312" source="uOk9SfMnvMUk-7f9dFpr-59" target="uOk9SfMnvMUk-7f9dFpr-51" edge="1">
          <mxGeometry width="50" height="50" relative="1" as="geometry">
            <mxPoint x="320" y="475" as="sourcePoint" />
            <mxPoint x="371.68" y="555.6600000000001" as="targetPoint" />
          </mxGeometry>
        </mxCell>
        <mxCell id="uOk9SfMnvMUk-7f9dFpr-63" value="input" style="edgeLabel;html=1;align=center;verticalAlign=middle;resizable=0;points=[];" parent="uOk9SfMnvMUk-7f9dFpr-62" vertex="1" connectable="0">
          <mxGeometry x="-0.2857" y="-1" relative="1" as="geometry">
            <mxPoint x="8" y="-2" as="offset" />
          </mxGeometry>
        </mxCell>
        <mxCell id="uOk9SfMnvMUk-7f9dFpr-64" value="" style="edgeStyle=orthogonalEdgeStyle;rounded=0;orthogonalLoop=1;jettySize=auto;html=1;entryX=0;entryY=0.5;entryDx=0;entryDy=0;exitX=1;exitY=0.25;exitDx=0;exitDy=0;" parent="uOk9SfMnvMUk-7f9dFpr-312" source="uOk9SfMnvMUk-7f9dFpr-51" target="uOk9SfMnvMUk-7f9dFpr-61" edge="1">
          <mxGeometry relative="1" as="geometry">
            <mxPoint x="780" y="247.5" as="sourcePoint" />
            <mxPoint x="850.2800000000002" y="246.68000000000006" as="targetPoint" />
          </mxGeometry>
        </mxCell>
        <mxCell id="uOk9SfMnvMUk-7f9dFpr-65" value="return" style="edgeLabel;html=1;align=center;verticalAlign=middle;resizable=0;points=[];" parent="uOk9SfMnvMUk-7f9dFpr-64" vertex="1" connectable="0">
          <mxGeometry x="-0.2833" relative="1" as="geometry">
            <mxPoint x="5" y="-2" as="offset" />
          </mxGeometry>
        </mxCell>
        <mxCell id="uOk9SfMnvMUk-7f9dFpr-41" value="MiddlewareAPI" style="swimlane;fontStyle=0;childLayout=stackLayout;horizontal=1;startSize=30;horizontalStack=0;resizeParent=1;resizeParentMax=0;resizeLast=0;collapsible=1;marginBottom=0;whiteSpace=wrap;html=1;fillColor=#d0cee2;strokeColor=#56517e;" parent="uOk9SfMnvMUk-7f9dFpr-312" vertex="1">
          <mxGeometry x="470" y="65" width="140" height="90" as="geometry" />
        </mxCell>
        <mxCell id="uOk9SfMnvMUk-7f9dFpr-42" value="dispatch: D" style="text;strokeColor=none;fillColor=none;align=left;verticalAlign=middle;spacingLeft=4;spacingRight=4;overflow=hidden;points=[[0,0.5],[1,0.5]];portConstraint=eastwest;rotatable=0;whiteSpace=wrap;html=1;" parent="uOk9SfMnvMUk-7f9dFpr-41" vertex="1">
          <mxGeometry y="30" width="140" height="30" as="geometry" />
        </mxCell>
        <mxCell id="uOk9SfMnvMUk-7f9dFpr-43" value="getState(): S" style="text;strokeColor=none;fillColor=none;align=left;verticalAlign=middle;spacingLeft=4;spacingRight=4;overflow=hidden;points=[[0,0.5],[1,0.5]];portConstraint=eastwest;rotatable=0;whiteSpace=wrap;html=1;" parent="uOk9SfMnvMUk-7f9dFpr-41" vertex="1">
          <mxGeometry y="60" width="140" height="30" as="geometry" />
        </mxCell>
        <mxCell id="uOk9SfMnvMUk-7f9dFpr-66" value="GetDefaultMiddlewareOptions" style="swimlane;fontStyle=0;childLayout=stackLayout;horizontal=1;startSize=30;horizontalStack=0;resizeParent=1;resizeParentMax=0;resizeLast=0;collapsible=1;marginBottom=0;whiteSpace=wrap;html=1;fillColor=#d0cee2;strokeColor=#56517e;" parent="uOk9SfMnvMUk-7f9dFpr-312" vertex="1">
          <mxGeometry x="160" y="50" width="280" height="120" as="geometry">
            <mxRectangle x="420" y="400" width="60" height="30" as="alternateBounds" />
          </mxGeometry>
        </mxCell>
        <mxCell id="uOk9SfMnvMUk-7f9dFpr-67" value="thunk: true" style="text;strokeColor=none;fillColor=none;align=left;verticalAlign=middle;spacingLeft=4;spacingRight=4;overflow=hidden;points=[[0,0.5],[1,0.5]];portConstraint=eastwest;rotatable=0;whiteSpace=wrap;html=1;" parent="uOk9SfMnvMUk-7f9dFpr-66" vertex="1">
          <mxGeometry y="30" width="280" height="30" as="geometry" />
        </mxCell>
        <mxCell id="uOk9SfMnvMUk-7f9dFpr-69" value="immutableCheck: true" style="text;strokeColor=none;fillColor=none;align=left;verticalAlign=middle;spacingLeft=4;spacingRight=4;overflow=hidden;points=[[0,0.5],[1,0.5]];portConstraint=eastwest;rotatable=0;whiteSpace=wrap;html=1;" parent="uOk9SfMnvMUk-7f9dFpr-66" vertex="1">
          <mxGeometry y="60" width="280" height="30" as="geometry" />
        </mxCell>
        <mxCell id="uOk9SfMnvMUk-7f9dFpr-70" value="serializableCheck: true" style="text;strokeColor=none;fillColor=none;align=left;verticalAlign=middle;spacingLeft=4;spacingRight=4;overflow=hidden;points=[[0,0.5],[1,0.5]];portConstraint=eastwest;rotatable=0;whiteSpace=wrap;html=1;" parent="uOk9SfMnvMUk-7f9dFpr-66" vertex="1">
          <mxGeometry y="90" width="280" height="30" as="geometry" />
        </mxCell>
      </root>
    </mxGraphModel>
  </diagram>
</mxfile>
